<svg width="2413" height="734" viewBox="0 0 2413 734" fill="none" xmlns="http://www.w3.org/2000/svg">
<g clip-path="url(#clip0_2193_6037)">
<path d="M2319.4 733.7H93.3C41.8 733.7 0 691.9 0 640.4V93.3C0 41.8 41.8 0 93.3 0H2319.4C2370.9 0 2412.7 41.8 2412.7 93.3V640.5C2412.6 691.9 2370.9 733.7 2319.4 733.7Z" fill="black"/>
<path d="M750.3 210H683.8L669.2 242.3H660.2L712.9 127.6H721.3L774 242.3H765L750.3 210ZM747.2 203L717 136.8L687 203H747.2Z" fill="white"/>
<path d="M856.6 156.8L817.9 242.3H809.5L771 156.8H779.7L813.8 233.3L848.2 156.8H856.6Z" fill="white"/>
<path d="M925.1 164.3C930.8 169.7 933.6 177.6 933.6 188.1V242.3H925.7V227.1C923 232.1 919 236 913.7 238.8C908.5 241.6 902.2 243 894.9 243C885.4 243 877.9 240.8 872.4 236.3C866.9 231.8 864.1 225.9 864.1 218.6C864.1 211.5 866.6 205.7 871.7 201.3C876.8 196.9 884.9 194.7 896 194.7H925.3V187.8C925.3 179.8 923.1 173.8 918.8 169.6C914.5 165.5 908.2 163.4 899.9 163.4C894.2 163.4 888.8 164.4 883.6 166.3C878.4 168.3 874 170.9 870.4 174.2L866.3 168.3C870.6 164.5 875.7 161.5 881.7 159.4C887.7 157.3 894 156.2 900.5 156.2C911.2 156.2 919.4 158.9 925.1 164.3ZM914.2 231.3C919.2 228 922.9 223.3 925.4 217.1V201H896.2C887.8 201 881.7 202.5 877.9 205.6C874.1 208.7 872.2 212.9 872.2 218.2C872.2 223.8 874.3 228.2 878.4 231.4C882.5 234.6 888.4 236.2 895.9 236.2C903.2 236.3 909.2 234.6 914.2 231.3Z" fill="white"/>
<path d="M966.7 134.1C965.4 132.8 964.7 131.3 964.7 129.4C964.7 127.5 965.4 126 966.7 124.6C968 123.3 969.6 122.6 971.5 122.6C973.4 122.6 974.9 123.2 976.3 124.5C977.6 125.8 978.3 127.3 978.3 129.2C978.3 131.1 977.6 132.6 976.3 134C975 135.3 973.4 136 971.5 136C969.5 136 968 135.4 966.7 134.1ZM967.3 156.8H975.5V242.3H967.3V156.8Z" fill="white"/>
<path d="M1010.1 120.8H1018.3V242.3H1010.1V120.8Z" fill="white"/>
<path d="M1106 164.3C1111.7 169.7 1114.5 177.6 1114.5 188.1V242.3H1106.6V227.1C1103.9 232.1 1099.9 236 1094.6 238.8C1089.4 241.6 1083.1 243 1075.8 243C1066.3 243 1058.8 240.8 1053.3 236.3C1047.8 231.8 1045 225.9 1045 218.6C1045 211.5 1047.5 205.7 1052.6 201.3C1057.7 196.9 1065.8 194.7 1076.9 194.7H1106.2V187.8C1106.2 179.8 1104 173.8 1099.7 169.6C1095.4 165.5 1089.1 163.4 1080.8 163.4C1075.1 163.4 1069.7 164.4 1064.5 166.3C1059.3 168.3 1054.9 170.9 1051.3 174.2L1047.2 168.3C1051.5 164.5 1056.6 161.5 1062.6 159.4C1068.6 157.3 1074.9 156.2 1081.4 156.2C1092.2 156.2 1100.4 158.9 1106 164.3ZM1095.1 231.3C1100.1 228 1103.8 223.3 1106.3 217.1V201H1077.1C1068.7 201 1062.6 202.5 1058.8 205.6C1055 208.7 1053.1 212.9 1053.1 218.2C1053.1 223.8 1055.2 228.2 1059.3 231.4C1063.4 234.6 1069.3 236.2 1076.8 236.2C1084.1 236.3 1090.2 234.6 1095.1 231.3Z" fill="white"/>
<path d="M1212.8 161.6C1219.2 165.3 1224.3 170.4 1228 177C1231.7 183.6 1233.5 191.1 1233.5 199.5C1233.5 207.9 1231.7 215.4 1228 221.9C1224.3 228.5 1219.3 233.6 1212.8 237.3C1206.4 241 1199.1 242.9 1191.2 242.9C1183.6 242.9 1176.6 241.1 1170.5 237.4C1164.3 233.7 1159.6 228.6 1156.2 222.1V242.2H1148.3V120.8H1156.5V176.3C1159.9 170 1164.6 165 1170.7 161.5C1176.8 158 1183.6 156.2 1191.2 156.2C1199.2 156.2 1206.4 158 1212.8 161.6ZM1208.4 231C1213.6 227.9 1217.8 223.7 1220.8 218.2C1223.8 212.7 1225.3 206.5 1225.3 199.5C1225.3 192.5 1223.8 186.3 1220.8 180.8C1217.8 175.3 1213.7 171.1 1208.4 168C1203.2 164.9 1197.3 163.4 1190.7 163.4C1184.1 163.4 1178.3 164.9 1173.1 168C1167.9 171.1 1163.8 175.3 1160.8 180.8C1157.8 186.3 1156.3 192.5 1156.3 199.5C1156.3 206.5 1157.8 212.7 1160.8 218.2C1163.8 223.7 1167.9 227.9 1173.1 231C1178.3 234.1 1184.2 235.6 1190.7 235.6C1197.2 235.6 1203.2 234.1 1208.4 231Z" fill="white"/>
<path d="M1258.9 120.8H1267.1V242.3H1258.9V120.8Z" fill="white"/>
<path d="M1373.8 201.5H1300.3C1300.5 208.2 1302.2 214.1 1305.4 219.3C1308.6 224.5 1312.9 228.5 1318.3 231.3C1323.7 234.1 1329.8 235.6 1336.6 235.6C1342.2 235.6 1347.3 234.6 1352.1 232.6C1356.9 230.6 1360.8 227.6 1364 223.7L1368.8 229.1C1365.1 233.6 1360.4 237 1354.8 239.4C1349.2 241.8 1343.1 243 1336.5 243C1328 243 1320.4 241.1 1313.7 237.4C1307 233.7 1301.8 228.6 1298.1 222C1294.3 215.4 1292.4 208 1292.4 199.6C1292.4 191.3 1294.2 183.9 1297.7 177.2C1301.2 170.6 1306.1 165.4 1312.4 161.7C1318.6 158 1325.6 156.1 1333.4 156.1C1341.2 156.1 1348.1 157.9 1354.3 161.6C1360.5 165.3 1365.3 170.4 1368.9 176.9C1372.4 183.5 1374.2 190.9 1374.2 199.2L1373.8 201.5ZM1317 167.4C1312.2 170.1 1308.3 173.8 1305.5 178.7C1302.6 183.6 1300.9 189 1300.5 195.2H1366C1365.7 189.1 1364 183.6 1361.1 178.8C1358.2 174 1354.3 170.2 1349.5 167.5C1344.7 164.8 1339.3 163.4 1333.3 163.4C1327.2 163.4 1321.8 164.7 1317 167.4Z" fill="white"/>
<path d="M1453 237.4C1446.5 233.7 1441.4 228.5 1437.7 221.9C1434 215.3 1432.1 207.8 1432.1 199.5C1432.1 191.2 1434 183.8 1437.7 177.1C1441.4 170.5 1446.5 165.3 1453 161.6C1459.5 157.9 1466.8 156 1474.9 156C1483 156 1490.3 157.9 1496.8 161.6C1503.3 165.3 1508.4 170.5 1512.1 177.1C1515.8 183.7 1517.7 191.2 1517.7 199.5C1517.7 207.8 1515.8 215.3 1512.1 221.9C1508.4 228.5 1503.3 233.7 1496.8 237.4C1490.3 241.1 1483 243 1474.9 243C1466.8 243 1459.5 241.1 1453 237.4ZM1492.5 231C1497.7 227.9 1501.8 223.7 1504.8 218.2C1507.8 212.7 1509.3 206.5 1509.3 199.5C1509.3 192.5 1507.8 186.3 1504.8 180.8C1501.8 175.3 1497.7 171.1 1492.5 168C1487.3 164.9 1481.4 163.4 1474.9 163.4C1468.4 163.4 1462.5 164.9 1457.3 168C1452.1 171.1 1448 175.3 1445 180.8C1442 186.3 1440.5 192.5 1440.5 199.5C1440.5 206.5 1442 212.7 1445 218.2C1448 223.7 1452.1 227.9 1457.3 231C1462.5 234.1 1468.4 235.6 1474.9 235.6C1481.4 235.6 1487.3 234.1 1492.5 231Z" fill="white"/>
<path d="M1610.2 165.5C1616.4 171.7 1619.5 180.7 1619.5 192.4V242.4H1611.3V193C1611.3 183.4 1608.9 176.1 1604 171.1C1599.1 166.1 1592.3 163.6 1583.6 163.6C1573.6 163.6 1565.6 166.6 1559.8 172.6C1554 178.6 1551.1 186.7 1551.1 196.8V242.3H1542.9V156.8H1550.8V175.3C1553.7 169.3 1558.1 164.6 1564 161.2C1569.8 157.8 1576.7 156.1 1584.7 156.1C1595.5 156.2 1604 159.3 1610.2 165.5Z" fill="white"/>
<path d="M1737.8 236.9C1735.7 238.9 1733.1 240.4 1730 241.4C1726.9 242.4 1723.6 243 1720.3 243C1712.9 243 1707.1 241 1703.1 236.9C1699.1 232.8 1697 227.1 1697 219.8V163.9H1681.3V156.9H1697V138.2H1705.2V156.9H1732.4V163.9H1705.2V218.9C1705.2 224.5 1706.5 228.7 1709.2 231.6C1711.9 234.5 1715.8 235.9 1721.1 235.9C1726.4 235.9 1730.9 234.3 1734.4 231.1L1737.8 236.9Z" fill="white"/>
<path d="M1827.7 165.5C1833.9 171.7 1837 180.7 1837 192.4V242.4H1828.8V193C1828.8 183.4 1826.4 176.1 1821.5 171.1C1816.6 166.1 1809.8 163.6 1801.1 163.6C1791.1 163.6 1783.1 166.6 1777.3 172.6C1771.5 178.6 1768.6 186.7 1768.6 196.8V242.3H1760.4V120.8H1768.6V174.7C1771.5 168.8 1775.9 164.2 1781.7 161C1787.5 157.8 1794.3 156.2 1802.2 156.2C1813 156.2 1821.5 159.3 1827.7 165.5Z" fill="white"/>
<path d="M1943.2 201.5H1869.7C1869.9 208.2 1871.6 214.1 1874.8 219.3C1878 224.5 1882.3 228.5 1887.7 231.3C1893.1 234.1 1899.2 235.6 1906 235.6C1911.6 235.6 1916.7 234.6 1921.5 232.6C1926.3 230.6 1930.2 227.6 1933.4 223.7L1938.2 229.1C1934.5 233.6 1929.8 237 1924.2 239.4C1918.6 241.8 1912.5 243 1905.9 243C1897.4 243 1889.8 241.1 1883.1 237.4C1876.4 233.7 1871.2 228.6 1867.5 222C1863.7 215.4 1861.8 208 1861.8 199.6C1861.8 191.3 1863.6 183.9 1867.1 177.2C1870.6 170.6 1875.5 165.4 1881.8 161.7C1888 158 1895 156.1 1902.8 156.1C1910.6 156.1 1917.5 157.9 1923.7 161.6C1929.9 165.3 1934.7 170.4 1938.3 176.9C1941.8 183.5 1943.6 190.9 1943.6 199.2L1943.2 201.5ZM1886.3 167.4C1881.5 170.1 1877.6 173.8 1874.8 178.7C1871.9 183.6 1870.2 189 1869.8 195.2H1935.3C1935 189.1 1933.3 183.6 1930.4 178.8C1927.5 174 1923.6 170.2 1918.8 167.5C1914 164.8 1908.6 163.4 1902.6 163.4C1896.5 163.4 1891.1 164.7 1886.3 167.4Z" fill="white"/>
<path d="M790.7 443.2H824.3V519.5C814.5 527.3 803 533.4 789.8 537.6C776.7 541.8 763.2 543.9 749.3 543.9C729.8 543.9 712.2 539.7 696.5 531.2C680.8 522.7 668.5 511 659.6 496C650.7 481 646.2 464.2 646.2 445.4C646.2 426.6 650.7 409.7 659.6 394.8C668.5 379.8 680.9 368.1 696.7 359.6C712.5 351.1 730.2 346.9 749.9 346.9C765.9 346.9 780.5 349.5 793.7 354.8C806.8 360.1 817.9 367.8 826.8 378.1L804.4 400C789.8 385.4 772.2 378.1 751.6 378.1C738.1 378.1 726.1 380.9 715.6 386.6C705.1 392.3 696.9 400.2 691 410.4C685.1 420.6 682.1 432.3 682.1 445.4C682.1 458.2 685.1 469.7 691 479.9C696.9 490.1 705.1 498.1 715.6 504C726.1 509.8 738 512.8 751.3 512.8C766.3 512.8 779.4 509.5 790.7 503V443.2Z" fill="white"/>
<path d="M893.5 533.5C881.6 527.1 872.4 518.2 865.7 506.8C859 495.4 855.7 482.5 855.7 468.1C855.7 453.7 859 440.8 865.7 429.5C872.4 418.2 881.6 409.4 893.5 403C905.4 396.6 918.7 393.4 933.4 393.4C948.4 393.4 961.8 396.6 973.6 403C985.5 409.4 994.7 418.2 1001.4 429.5C1008.1 440.8 1011.4 453.7 1011.4 468.1C1011.4 482.5 1008.1 495.4 1001.4 506.8C994.7 518.2 985.5 527.1 973.6 533.5C961.7 539.9 948.3 543.1 933.4 543.1C918.7 543 905.4 539.9 893.5 533.5ZM964.6 501.2C972.8 492.8 976.9 481.8 976.9 468.1C976.9 454.4 972.8 443.4 964.6 435C956.4 426.6 946 422.4 933.4 422.4C920.8 422.4 910.5 426.6 902.4 435C894.3 443.4 890.2 454.4 890.2 468.1C890.2 481.8 894.3 492.8 902.4 501.2C910.5 509.6 920.9 513.8 933.4 513.8C946 513.8 956.4 509.6 964.6 501.2Z" fill="white"/>
<path d="M1070 533.5C1058.1 527.1 1048.9 518.2 1042.2 506.8C1035.5 495.4 1032.2 482.5 1032.2 468.1C1032.2 453.7 1035.5 440.8 1042.2 429.5C1048.9 418.2 1058.1 409.4 1070 403C1081.9 396.6 1095.2 393.4 1109.9 393.4C1124.9 393.4 1138.3 396.6 1150.1 403C1162 409.4 1171.2 418.2 1177.9 429.5C1184.6 440.8 1187.9 453.7 1187.9 468.1C1187.9 482.5 1184.6 495.4 1177.9 506.8C1171.2 518.2 1162 527.1 1150.1 533.5C1138.2 539.9 1124.8 543.1 1109.9 543.1C1095.1 543 1081.8 539.9 1070 533.5ZM1141.1 501.2C1149.3 492.8 1153.4 481.8 1153.4 468.1C1153.4 454.4 1149.3 443.4 1141.1 435C1132.9 426.6 1122.5 422.4 1109.9 422.4C1097.3 422.4 1087 426.6 1078.9 435C1070.8 443.4 1066.7 454.4 1066.7 468.1C1066.7 481.8 1070.8 492.8 1078.9 501.2C1087 509.6 1097.4 513.8 1109.9 513.8C1122.5 513.8 1132.9 509.6 1141.1 501.2Z" fill="white"/>
<path d="M1365.7 395.1V519C1365.7 570.4 1339.4 596.1 1286.9 596.1C1272.9 596.1 1259.5 594.3 1247 590.8C1234.4 587.2 1224 582.1 1215.8 575.3L1231.1 549.6C1237.5 554.9 1245.6 559.1 1255.3 562.3C1265.1 565.5 1274.9 567.1 1285 567.1C1301 567.1 1312.8 563.4 1320.3 556.2C1327.8 548.9 1331.5 537.8 1331.5 522.8V515.1C1325.7 521.5 1318.6 526.3 1310.2 529.6C1301.8 532.9 1292.6 534.5 1282.6 534.5C1268.7 534.5 1256.2 531.5 1245 525.6C1233.8 519.7 1224.9 511.3 1218.5 500.6C1212 489.8 1208.8 477.5 1208.8 463.7C1208.8 449.8 1212 437.6 1218.5 426.9C1225 416.2 1233.8 408 1245 402.1C1256.2 396.3 1268.8 393.3 1282.6 393.3C1293.2 393.3 1302.8 395 1311.5 398.5C1320.2 402 1327.4 407.3 1333.2 414.4V395H1365.7V395.1ZM1319.6 493.9C1327.9 486.2 1332 476.1 1332 463.7C1332 451.5 1327.8 441.5 1319.6 433.9C1311.3 426.2 1300.7 422.4 1287.7 422.4C1274.6 422.4 1263.9 426.2 1255.6 433.9C1247.3 441.6 1243.2 451.5 1243.2 463.7C1243.2 476.1 1247.3 486.2 1255.6 493.9C1263.9 501.7 1274.6 505.5 1287.7 505.5C1300.6 505.6 1311.3 501.7 1319.6 493.9Z" fill="white"/>
<path d="M1410.5 338.2H1444.7V541.2H1410.5V338.2Z" fill="white"/>
<path d="M1626.3 479H1511.7C1513.7 489.8 1518.9 498.3 1527.4 504.6C1535.9 510.9 1546.4 514 1559 514C1575 514 1588.3 508.7 1598.7 498.1L1617 519.2C1610.4 527 1602.1 533 1592.1 537C1582.1 541 1570.8 543 1558.2 543C1542.2 543 1528 539.8 1515.8 533.4C1503.6 527 1494.1 518.1 1487.5 506.7C1480.8 495.3 1477.5 482.4 1477.5 468C1477.5 453.8 1480.7 441 1487.2 429.6C1493.7 418.2 1502.7 409.3 1514.1 402.9C1525.6 396.5 1538.5 393.3 1552.9 393.3C1567.1 393.3 1579.8 396.4 1591.1 402.7C1602.3 409 1611.1 417.8 1617.4 429.2C1623.7 440.6 1626.8 453.8 1626.8 468.7C1626.9 471.3 1626.7 474.7 1626.3 479ZM1525.3 430.5C1517.7 437 1513.1 445.6 1511.5 456.4H1594.4C1592.9 445.8 1588.5 437.3 1581 430.7C1573.5 424.1 1564.2 420.9 1553.1 420.9C1542.1 420.8 1532.8 424 1525.3 430.5Z" fill="white"/>
<path d="M1860.6 357.8C1872.9 363.3 1882.3 371.1 1888.9 381.3C1895.5 391.5 1898.7 403.6 1898.7 417.7C1898.7 431.6 1895.4 443.6 1888.9 453.9C1882.3 464.2 1872.9 472.1 1860.6 477.6C1848.3 483.1 1833.8 485.8 1817.2 485.8H1774V541.1H1738.4V349.6H1817.2C1833.9 349.6 1848.3 352.4 1860.6 357.8ZM1850.9 445.9C1858.9 439.3 1862.9 429.9 1862.9 417.7C1862.9 405.5 1858.9 396.1 1850.9 389.5C1842.9 382.9 1831.1 379.7 1815.6 379.7H1774V455.7H1815.6C1831.1 455.8 1842.9 452.5 1850.9 445.9Z" fill="white"/>
<path d="M1933.8 338.2H1968V541.2H1933.8V338.2Z" fill="white"/>
<path d="M2118 408.9C2129.4 419.2 2135.1 434.8 2135.1 455.5V541.1H2102.8V523.3C2098.6 529.7 2092.6 534.6 2084.9 537.9C2077.1 541.3 2067.8 543 2056.9 543C2046 543 2036.4 541.1 2028.2 537.4C2020 533.7 2013.7 528.5 2009.2 521.8C2004.7 515.1 2002.5 507.6 2002.5 499.2C2002.5 486.1 2007.4 475.5 2017.1 467.6C2026.9 459.7 2042.2 455.7 2063.2 455.7H2101V453.5C2101 443.3 2097.9 435.4 2091.8 430C2085.7 424.5 2076.6 421.8 2064.6 421.8C2056.4 421.8 2048.3 423.1 2040.4 425.6C2032.5 428.2 2025.8 431.7 2020.3 436.3L2006.9 411.4C2014.6 405.6 2023.8 401.1 2034.5 398C2045.3 394.9 2056.7 393.3 2068.7 393.3C2090.2 393.4 2106.6 398.6 2118 408.9ZM2086.9 512.3C2093.6 508.4 2098.3 502.8 2101 495.5V478.5H2065.7C2046 478.5 2036.2 485 2036.2 497.9C2036.2 504.1 2038.7 509 2043.6 512.7C2048.5 516.4 2055.4 518.2 2064.1 518.2C2072.6 518.1 2080.2 516.2 2086.9 512.3Z" fill="white"/>
<path d="M2312.9 395.1L2244.5 552.9C2238.1 568.8 2230.4 579.9 2221.2 586.4C2212.1 592.9 2201 596.1 2188.1 596.1C2180.8 596.1 2173.6 594.9 2166.5 592.5C2159.4 590.1 2153.6 586.8 2149 582.7L2162.7 557.5C2166 560.6 2169.9 563.1 2174.3 564.9C2178.8 566.7 2183.3 567.6 2187.8 567.6C2193.8 567.6 2198.8 566 2202.7 562.9C2206.6 559.8 2210.2 554.6 2213.5 547.3L2216 541.6L2152.3 395H2187.9L2233.9 503.1L2280.1 395H2312.9V395.1Z" fill="white"/>
<path d="M580.5 357.5L488.6 304.5L413 377.5L482.1 444.3L580.5 387.5C585.9 384.4 589.2 378.8 589.2 372.5C589.2 366.2 585.9 360.6 580.5 357.5Z" fill="white"/>
<path d="M473 295.4L371.8 237L150.2 123.4L400.6 365.5L473 295.4Z" fill="white"/>
<path d="M153.8 628L372.2 507.7L466.5 453.3L400.6 389.6L153.8 628Z" fill="white"/>
<path d="M135.4 133.2L135.1 622L388.1 377.5L135.4 133.2Z" fill="white"/>
</g>
<defs>
<clipPath id="clip0_2193_6037">
<rect width="2412.6" height="733.7" fill="white"/>
</clipPath>
</defs>
</svg>
