<svg width="2413" height="734" viewBox="0 0 2413 734" fill="none" xmlns="http://www.w3.org/2000/svg">
<g clip-path="url(#clip0_2193_6004)">
<path d="M2319.4 733.7H93.3C41.8 733.7 0 691.9 0 640.4V93.3C0 41.8 41.8 0 93.3 0H2319.4C2370.9 0 2412.7 41.8 2412.7 93.3V640.5C2412.6 691.9 2370.9 733.7 2319.4 733.7Z" fill="black"/>
<path d="M149.8 299.8C110.7 367.7 135.5 470.8 178.8 533.3C200.4 564.5 222.3 592.6 252.2 592.6C252.8 592.6 253.3 592.6 253.9 592.6C268 592 278.1 587.7 288 583.5C299 578.8 310.5 573.9 328.4 573.9C345.4 573.9 356.3 578.6 366.8 583.2C377.2 587.7 387.8 592.3 403.6 592C437.3 591.4 458.1 561.1 476.3 534.4C495.4 506.5 504.9 479.5 508.2 469.1L508.3 468.7C508.9 466.9 508 464.9 506.3 464C506.3 464 506.1 463.9 506 463.9C500.1 461.5 447.9 438.3 447.4 375.3C446.9 324.1 486.5 297 494.4 292.1L494.8 291.9C495.7 291.3 496.3 290.5 496.5 289.5C496.7 288.5 496.5 287.4 495.9 286.6C468.6 246.6 426.7 240.6 409.8 239.8C407.4 239.6 404.8 239.4 402.3 239.4C382.5 239.4 363.5 246.9 348.2 252.9C337.7 257.1 328.6 260.6 322.3 260.6C315.2 260.6 306.1 257 295.5 252.8C281.3 247.2 265.3 240.8 248.3 240.8C247.9 240.8 247.5 240.8 247.1 240.8C207.7 241.4 170.4 264 149.8 299.8Z" fill="white"/>
<path d="M409.9 129.6C386 130.6 357.3 145.3 340.1 165.4C325.5 182.3 311.3 210.4 315 238.8C315.2 240.6 316.7 241.9 318.5 242.1C320.1 242.2 321.8 242.3 323.4 242.3C346.8 242.3 372 229.4 389.3 208.5C407.4 186.5 416.6 158.3 413.8 133C413.6 131 411.8 129.5 409.9 129.6Z" fill="white"/>
<path d="M685.2 127.7H730.6C742.5 127.7 753.1 130.2 762.3 135.1C771.5 140 778.7 146.8 783.8 155.5C788.9 164.2 791.5 174 791.5 185.1C791.5 196.1 788.9 206 783.8 214.7C778.7 223.4 771.5 230.2 762.3 235.1C753.1 240 742.5 242.5 730.6 242.5H685.2V127.7ZM729.9 234.8C740.5 234.8 749.8 232.7 757.9 228.5C766 224.3 772.2 218.4 776.6 210.9C781 203.4 783.2 194.7 783.2 185C783.2 175.3 781 166.7 776.6 159.1C772.2 151.6 766 145.7 757.9 141.5C749.8 137.3 740.5 135.2 729.9 135.2H693.5V234.8H729.9Z" fill="white"/>
<path d="M829.4 237.4C822.9 233.7 817.8 228.5 814.1 221.9C810.4 215.3 808.5 207.8 808.5 199.5C808.5 191.2 810.4 183.7 814.1 177.1C817.8 170.5 822.9 165.3 829.4 161.6C835.9 157.9 843.2 156 851.3 156C859.4 156 866.7 157.9 873.2 161.6C879.7 165.3 884.8 170.5 888.5 177.1C892.2 183.7 894.1 191.2 894.1 199.5C894.1 207.8 892.2 215.3 888.5 221.9C884.8 228.5 879.7 233.7 873.2 237.4C866.7 241.1 859.4 243 851.3 243C843.2 243 835.9 241.1 829.4 237.4ZM868.9 231C874.1 227.9 878.2 223.7 881.2 218.2C884.2 212.7 885.7 206.5 885.7 199.5C885.7 192.5 884.2 186.3 881.2 180.8C878.2 175.3 874.1 171.1 868.9 168C863.7 164.9 857.8 163.4 851.3 163.4C844.7 163.4 838.9 164.9 833.7 168C828.5 171.1 824.4 175.3 821.4 180.8C818.4 186.3 816.9 192.5 816.9 199.5C816.9 206.5 818.4 212.7 821.4 218.2C824.4 223.7 828.5 227.9 833.7 231C838.9 234.1 844.8 235.6 851.3 235.6C857.8 235.6 863.7 234.1 868.9 231Z" fill="white"/>
<path d="M1039.1 156.8L1006.7 242.3H999L970.2 168.1L941.2 242.3H933.7L901.3 156.8H909.2L937.7 233.1L966.9 156.8H973.9L1002.9 233L1031.7 156.8H1039.1Z" fill="white"/>
<path d="M1125.3 165.5C1131.5 171.7 1134.6 180.7 1134.6 192.4V242.4H1126.4V193C1126.4 183.4 1124 176.1 1119.1 171.1C1114.2 166.1 1107.4 163.6 1098.7 163.6C1088.7 163.6 1080.7 166.6 1074.9 172.6C1069.1 178.6 1066.2 186.7 1066.2 196.8V242.3H1058V156.8H1065.9V175.3C1068.8 169.3 1073.2 164.6 1079.1 161.2C1084.9 157.8 1091.8 156.1 1099.8 156.1C1110.6 156.2 1119.1 159.3 1125.3 165.5Z" fill="white"/>
<path d="M1168.4 120.8H1176.6V242.3H1168.4V120.8Z" fill="white"/>
<path d="M1222.6 237.4C1216.1 233.7 1211 228.5 1207.3 221.9C1203.6 215.3 1201.7 207.8 1201.7 199.5C1201.7 191.2 1203.6 183.7 1207.3 177.1C1211 170.5 1216.1 165.3 1222.6 161.6C1229.1 157.9 1236.4 156 1244.5 156C1252.6 156 1259.9 157.9 1266.4 161.6C1272.9 165.3 1278 170.5 1281.7 177.1C1285.4 183.7 1287.3 191.2 1287.3 199.5C1287.3 207.8 1285.4 215.3 1281.7 221.9C1278 228.5 1272.9 233.7 1266.4 237.4C1259.9 241.1 1252.6 243 1244.5 243C1236.4 243 1229.1 241.1 1222.6 237.4ZM1262.1 231C1267.3 227.9 1271.4 223.7 1274.4 218.2C1277.4 212.7 1278.9 206.5 1278.9 199.5C1278.9 192.5 1277.4 186.3 1274.4 180.8C1271.4 175.3 1267.3 171.1 1262.1 168C1256.9 164.9 1251 163.4 1244.5 163.4C1238 163.4 1232.1 164.9 1226.9 168C1221.7 171.1 1217.6 175.3 1214.6 180.8C1211.6 186.3 1210.1 192.5 1210.1 199.5C1210.1 206.5 1211.6 212.7 1214.6 218.2C1217.6 223.7 1221.7 227.9 1226.9 231C1232.1 234.1 1238 235.6 1244.5 235.6C1251 235.6 1256.9 234.1 1262.1 231Z" fill="white"/>
<path d="M1365.6 164.3C1371.3 169.7 1374.1 177.6 1374.1 188.1V242.3H1366.2V227.1C1363.5 232.1 1359.5 236 1354.2 238.8C1349 241.6 1342.7 243 1335.4 243C1325.9 243 1318.4 240.8 1312.9 236.3C1307.4 231.8 1304.6 225.9 1304.6 218.6C1304.6 211.5 1307.1 205.7 1312.2 201.3C1317.3 196.9 1325.4 194.7 1336.5 194.7H1365.8V187.8C1365.8 179.8 1363.6 173.8 1359.3 169.6C1355 165.5 1348.7 163.4 1340.4 163.4C1334.7 163.4 1329.3 164.4 1324.1 166.3C1318.9 168.3 1314.5 170.9 1310.9 174.2L1306.8 168.3C1311.1 164.5 1316.2 161.5 1322.2 159.4C1328.2 157.3 1334.5 156.2 1341 156.2C1351.7 156.2 1359.9 158.9 1365.6 164.3ZM1354.7 231.3C1359.7 228 1363.4 223.3 1365.9 217.1V201H1336.7C1328.3 201 1322.2 202.5 1318.4 205.6C1314.6 208.7 1312.7 212.9 1312.7 218.2C1312.7 223.8 1314.8 228.2 1318.9 231.4C1323 234.6 1328.9 236.2 1336.4 236.2C1343.7 236.3 1349.7 234.6 1354.7 231.3Z" fill="white"/>
<path d="M1484 120.8V242.3H1476V222.2C1472.6 228.9 1467.9 234 1461.8 237.6C1455.7 241.2 1448.8 243 1441 243C1433 243 1425.8 241.1 1419.4 237.4C1413 233.7 1407.9 228.6 1404.2 222C1400.5 215.4 1398.7 208 1398.7 199.6C1398.7 191.2 1400.5 183.7 1404.2 177.1C1407.9 170.5 1412.9 165.4 1419.4 161.7C1425.8 158 1433 156.2 1441 156.2C1448.6 156.2 1455.5 158 1461.6 161.6C1467.7 165.2 1472.4 170.2 1475.9 176.7V120.8H1484ZM1459 231C1464.2 227.9 1468.3 223.7 1471.3 218.2C1474.3 212.7 1475.8 206.5 1475.8 199.5C1475.8 192.5 1474.3 186.3 1471.3 180.8C1468.3 175.3 1464.2 171.1 1459 168C1453.8 164.9 1447.9 163.4 1441.4 163.4C1434.9 163.4 1429 164.9 1423.8 168C1418.6 171.1 1414.5 175.3 1411.5 180.8C1408.5 186.3 1407 192.5 1407 199.5C1407 206.5 1408.5 212.7 1411.5 218.2C1414.5 223.7 1418.6 227.9 1423.8 231C1429 234.1 1434.9 235.6 1441.4 235.6C1447.9 235.6 1453.8 234.1 1459 231Z" fill="white"/>
<path d="M1572.2 237.4C1565.7 233.7 1560.6 228.5 1556.9 221.9C1553.2 215.3 1551.3 207.8 1551.3 199.5C1551.3 191.2 1553.2 183.7 1556.9 177.1C1560.6 170.5 1565.7 165.3 1572.2 161.6C1578.7 157.9 1586 156 1594.1 156C1602.2 156 1609.5 157.9 1616 161.6C1622.5 165.3 1627.6 170.5 1631.3 177.1C1635 183.7 1636.9 191.2 1636.9 199.5C1636.9 207.8 1635 215.3 1631.3 221.9C1627.6 228.5 1622.5 233.7 1616 237.4C1609.5 241.1 1602.2 243 1594.1 243C1586 243 1578.7 241.1 1572.2 237.4ZM1611.6 231C1616.8 227.9 1620.9 223.7 1623.9 218.2C1626.9 212.7 1628.4 206.5 1628.4 199.5C1628.4 192.5 1626.9 186.3 1623.9 180.8C1620.9 175.3 1616.8 171.1 1611.6 168C1606.4 164.9 1600.5 163.4 1594 163.4C1587.5 163.4 1581.6 164.9 1576.4 168C1571.2 171.1 1567.1 175.3 1564.1 180.8C1561.1 186.3 1559.6 192.5 1559.6 199.5C1559.6 206.5 1561.1 212.7 1564.1 218.2C1567.1 223.7 1571.2 227.9 1576.4 231C1581.6 234.1 1587.5 235.6 1594 235.6C1600.5 235.6 1606.5 234.1 1611.6 231Z" fill="white"/>
<path d="M1729.3 165.5C1735.5 171.7 1738.6 180.7 1738.6 192.4V242.4H1730.4V193C1730.4 183.4 1728 176.1 1723.1 171.1C1718.2 166.1 1711.4 163.6 1702.7 163.6C1692.7 163.6 1684.7 166.6 1678.9 172.6C1673.1 178.6 1670.2 186.7 1670.2 196.8V242.3H1662V156.8H1669.9V175.3C1672.8 169.3 1677.2 164.6 1683.1 161.2C1688.9 157.8 1695.8 156.1 1703.8 156.1C1714.6 156.2 1723.1 159.3 1729.3 165.5Z" fill="white"/>
<path d="M1856.9 236.9C1854.8 238.9 1852.2 240.4 1849.1 241.4C1846 242.4 1842.7 243 1839.4 243C1832 243 1826.2 241 1822.2 236.9C1818.2 232.8 1816.1 227.1 1816.1 219.8V163.9H1800.4V156.9H1816.1V138.2H1824.3V156.9H1851.5V163.9H1824.3V218.9C1824.3 224.5 1825.6 228.7 1828.3 231.6C1831 234.5 1834.9 235.9 1840.2 235.9C1845.5 235.9 1850 234.3 1853.5 231.1L1856.9 236.9Z" fill="white"/>
<path d="M1946.8 165.5C1953 171.7 1956.1 180.7 1956.1 192.4V242.4H1947.9V193C1947.9 183.4 1945.5 176.1 1940.6 171.1C1935.7 166.1 1928.9 163.6 1920.2 163.6C1910.2 163.6 1902.2 166.6 1896.4 172.6C1890.6 178.6 1887.7 186.7 1887.7 196.8V242.3H1879.5V120.8H1887.7V174.7C1890.6 168.8 1895 164.2 1900.8 161C1906.6 157.8 1913.4 156.2 1921.3 156.2C1932.2 156.2 1940.6 159.3 1946.8 165.5Z" fill="white"/>
<path d="M2062.3 201.5H1988.8C1989 208.2 1990.7 214.1 1993.9 219.3C1997.1 224.5 2001.4 228.5 2006.8 231.3C2012.2 234.1 2018.3 235.6 2025.1 235.6C2030.7 235.6 2035.8 234.6 2040.6 232.6C2045.4 230.6 2049.3 227.6 2052.5 223.7L2057.3 229.1C2053.6 233.6 2048.9 237 2043.3 239.4C2037.7 241.8 2031.6 243 2025 243C2016.5 243 2008.9 241.1 2002.2 237.4C1995.5 233.7 1990.3 228.6 1986.6 222C1982.8 215.4 1980.9 208 1980.9 199.6C1980.9 191.3 1982.7 183.8 1986.2 177.2C1989.7 170.6 1994.6 165.4 2000.9 161.7C2007.1 158 2014.1 156.1 2021.9 156.1C2029.7 156.1 2036.6 157.9 2042.8 161.6C2049 165.3 2053.8 170.4 2057.4 176.9C2060.9 183.5 2062.7 190.9 2062.7 199.2L2062.3 201.5ZM2005.5 167.4C2000.7 170.1 1996.8 173.8 1994 178.7C1991.1 183.6 1989.4 189 1989 195.2H2054.5C2054.2 189.1 2052.5 183.6 2049.6 178.8C2046.7 174 2042.8 170.2 2038 167.5C2033.2 164.8 2027.8 163.4 2021.8 163.4C2015.7 163.4 2010.3 164.7 2005.5 167.4Z" fill="white"/>
<path d="M806.4 495.8H708.4L689.1 541.1H651.6L739.8 345.2H775.6L864.1 541.1H826L806.4 495.8ZM794.4 467.2L757.5 381.5L720.8 467.2H794.4Z" fill="white"/>
<path d="M1007.5 399.5C1019 405.8 1028 414.8 1034.5 426.4C1041 438 1044.3 451.3 1044.3 466.4C1044.3 481.5 1041 494.9 1034.5 506.6C1028 518.3 1019 527.3 1007.5 533.6C996 539.9 983 543.1 968.5 543.1C948.3 543.1 932.4 536.4 920.6 522.9V595.4H885.6V391.7H919V411.3C924.8 404.2 931.9 398.9 940.4 395.3C948.9 391.8 958.3 390 968.5 390C983.1 390 996.1 393.2 1007.5 399.5ZM996.3 500.3C1004.6 491.7 1008.8 480.4 1008.8 466.4C1008.8 452.4 1004.6 441.1 996.3 432.5C988 423.9 977.4 419.6 964.5 419.6C956.1 419.6 948.5 421.5 941.8 425.3C935.1 429.1 929.8 434.6 925.8 441.7C921.9 448.8 919.9 457 919.9 466.3C919.9 475.6 921.9 483.8 925.8 490.9C929.7 498 935 503.5 941.8 507.3C948.5 511.1 956.1 513 964.5 513C977.5 513.1 988 508.8 996.3 500.3Z" fill="white"/>
<path d="M1199.6 399.5C1211.1 405.8 1220.1 414.8 1226.6 426.4C1233.1 438 1236.4 451.3 1236.4 466.4C1236.4 481.5 1233.1 494.9 1226.6 506.6C1220.1 518.3 1211.1 527.3 1199.6 533.6C1188.1 539.9 1175.1 543.1 1160.6 543.1C1140.4 543.1 1124.5 536.4 1112.7 522.9V595.4H1077.7V391.7H1111V411.3C1116.8 404.2 1123.9 398.9 1132.4 395.3C1140.9 391.8 1150.3 390 1160.5 390C1175.1 390 1188.1 393.2 1199.6 399.5ZM1188.4 500.3C1196.7 491.7 1200.9 480.4 1200.9 466.4C1200.9 452.4 1196.7 441.1 1188.4 432.5C1180.1 423.9 1169.5 419.6 1156.6 419.6C1148.2 419.6 1140.6 421.5 1133.9 425.3C1127.2 429.1 1121.9 434.6 1117.9 441.7C1114 448.8 1112 457 1112 466.3C1112 475.6 1114 483.8 1117.9 490.9C1121.8 498 1127.1 503.5 1133.9 507.3C1140.6 511.1 1148.2 513 1156.6 513C1169.5 513.1 1180.1 508.8 1188.4 500.3Z" fill="white"/>
<path d="M1367.2 537.5C1353.1 533.2 1342 527.5 1333.8 520.4L1346.4 492.1C1354.4 498.4 1364.3 503.6 1375.9 507.6C1387.6 511.6 1399.3 513.6 1411 513.6C1425.6 513.6 1436.4 511.3 1443.6 506.6C1450.8 501.9 1454.4 495.8 1454.4 488.1C1454.4 482.5 1452.4 477.9 1448.4 474.2C1444.4 470.6 1439.3 467.7 1433.1 465.7C1426.9 463.6 1418.5 461.3 1407.9 458.7C1393 455.2 1380.9 451.6 1371.7 448.1C1362.5 444.6 1354.5 439 1347.9 431.4C1341.3 423.8 1338 413.6 1338 400.8C1338 390 1340.9 380.1 1346.8 371.3C1352.7 362.4 1361.5 355.4 1373.4 350.2C1385.2 345 1399.8 342.4 1416.9 342.4C1428.8 342.4 1440.6 343.9 1452.2 346.9C1463.8 349.9 1473.8 354.2 1482.1 359.8L1470.6 388.1C1462 383.1 1453.1 379.2 1443.7 376.6C1434.4 374 1425.3 372.7 1416.5 372.7C1402.1 372.7 1391.4 375.1 1384.5 380C1377.5 384.9 1374 391.3 1374 399.3C1374 404.9 1376 409.5 1380 413C1384 416.5 1389.1 419.3 1395.3 421.4C1401.5 423.5 1409.9 425.8 1420.5 428.4C1435.1 431.8 1447 435.3 1456.3 438.9C1465.6 442.5 1473.6 448.1 1480.2 455.6C1486.8 463.1 1490.1 473.1 1490.1 485.8C1490.1 496.6 1487.2 506.4 1481.3 515.2C1475.4 524 1466.5 531 1454.6 536.2C1442.7 541.4 1428.1 544 1410.9 544C1395.9 543.9 1381.3 541.8 1367.2 537.5Z" fill="white"/>
<path d="M1612.8 533C1608.7 536.4 1603.7 538.9 1597.8 540.6C1591.9 542.3 1585.7 543.1 1579.2 543.1C1562.8 543.1 1550.1 538.8 1541.1 530.2C1532.1 521.6 1527.7 509.1 1527.7 492.7V420.8H1503.1V392.8H1527.7V358.7H1562.7V392.8H1602.7V420.8H1562.7V491.9C1562.7 499.2 1564.5 504.7 1568 508.6C1571.5 512.4 1576.7 514.3 1583.4 514.3C1591.2 514.3 1597.8 512.2 1603 508.1L1612.8 533Z" fill="white"/>
<path d="M1662.9 533.3C1650.8 526.8 1641.3 517.7 1634.5 506C1627.7 494.3 1624.3 481.1 1624.3 466.4C1624.3 451.7 1627.7 438.5 1634.5 426.9C1641.3 415.3 1650.8 406.3 1662.9 399.7C1675 393.2 1688.7 389.9 1703.8 389.9C1719.1 389.9 1732.8 393.2 1744.9 399.7C1757 406.2 1766.5 415.3 1773.3 426.9C1780.1 438.5 1783.5 451.6 1783.5 466.4C1783.5 481.1 1780.1 494.3 1773.3 506C1766.5 517.7 1757 526.8 1744.9 533.3C1732.8 539.8 1719.1 543.1 1703.8 543.1C1688.7 543.1 1675.1 539.8 1662.9 533.3ZM1735.7 500.3C1744.1 491.7 1748.3 480.4 1748.3 466.4C1748.3 452.4 1744.1 441.1 1735.7 432.5C1727.3 423.9 1716.7 419.6 1703.8 419.6C1690.9 419.6 1680.3 423.9 1672 432.5C1663.7 441.1 1659.5 452.4 1659.5 466.4C1659.5 480.4 1663.7 491.7 1672 500.3C1680.3 508.9 1690.9 513.2 1703.8 513.2C1716.7 513.1 1727.3 508.8 1735.7 500.3Z" fill="white"/>
<path d="M1903.6 390V423.3C1900.6 422.7 1897.9 422.5 1895.5 422.5C1881.9 422.5 1871.2 426.5 1863.6 434.4C1855.9 442.3 1852.1 453.8 1852.1 468.7V541.2H1817.1V391.7H1850.4V413.5C1860.5 397.8 1878.3 390 1903.6 390Z" fill="white"/>
<path d="M2071.9 477.6H1954.6C1956.7 488.6 1962 497.3 1970.7 503.8C1979.4 510.2 1990.2 513.5 2003 513.5C2019.4 513.5 2032.9 508.1 2043.6 497.3L2062.4 518.9C2055.7 526.9 2047.2 533 2036.9 537.1C2026.6 541.2 2015.1 543.3 2002.2 543.3C1985.8 543.3 1971.3 540 1958.8 533.5C1946.3 527 1936.6 517.9 1929.8 506.2C1923 494.5 1919.6 481.3 1919.6 466.6C1919.6 452 1922.9 438.9 1929.5 427.3C1936.1 415.6 1945.3 406.5 1957.1 400C1968.9 393.5 1982.1 390.2 1996.8 390.2C2011.4 390.2 2024.4 393.4 2035.8 399.9C2047.3 406.3 2056.2 415.4 2062.7 427.1C2069.1 438.8 2072.4 452.2 2072.4 467.5C2072.4 469.7 2072.2 473.1 2071.9 477.6ZM1968.4 427.9C1960.7 434.5 1955.9 443.3 1954.3 454.4H2039.1C2037.6 443.6 2033 434.8 2025.4 428.1C2017.7 421.4 2008.2 418 1996.9 418C1985.7 418 1976.2 421.3 1968.4 427.9Z" fill="white"/>
</g>
<defs>
<clipPath id="clip0_2193_6004">
<rect width="2412.6" height="733.7" fill="white"/>
</clipPath>
</defs>
</svg>
