<svg width="104px" height="104px" viewBox="0 0 104 104" version="1.1" xmlns="http://www.w3.org/2000/svg" xmlns:xlink="http://www.w3.org/1999/xlink">
    <title>Commercial</title>
    <defs>
        <linearGradient x1="18.7851852%" y1="100%" x2="90.4780247%" y2="9.26333333%" id="linearGradient-1">
            <stop stop-color="#FF7100" offset="0%"></stop>
            <stop stop-color="#F6DA35" offset="100%"></stop>
        </linearGradient>
    </defs>
    <g id="ILLU-RE" stroke="none" stroke-width="1" fill="none" fill-rule="evenodd">
        <g id="re-ad-publish" transform="translate(-428.000000, -255.000000)">
            <g id="Commercial" transform="translate(428.000000, 255.000000)">
                <rect id="Rectangle" fill-opacity="0.01" fill="#FFFFFF" fill-rule="nonzero" x="0" y="0" width="104" height="104"></rect>
                <path d="M52,92.3615333 C72.1032,92.3615333 88.4,89.5353333 88.4,86.0476067 C88.4,82.5603133 72.1032,79.7333333 52,79.7333333 C31.8968,79.7333333 15.6,82.5603133 15.6,86.0476067 C15.6,89.5353333 31.8968,92.3615333 52,92.3615333 Z" id="Path" fill="#F8F8F8" fill-rule="nonzero"></path>
                <path d="M60.3317867,41.6 L74.8682133,41.6 C76.1192467,41.6 77.1333333,42.6141733 77.1333333,43.86512 L77.1333333,85.8 L58.0666667,85.8 L58.0666667,43.86512 C58.0666667,42.6141733 59.0807533,41.6 60.3317867,41.6 Z" id="Path" stroke="#363636" stroke-width="0.866666667" fill="#EEEEEE"></path>
                <line x1="72.8" y1="55.2828467" x2="65.8666667" y2="55.2828467" id="Path" stroke="#363636" stroke-width="0.866666667" stroke-linecap="round"></line>
                <line x1="72.8" y1="67.25862" x2="65.8666667" y2="67.25862" id="Path" stroke="#363636" stroke-width="0.866666667" stroke-linecap="round"></line>
                <line x1="72.8" y1="79.2343933" x2="65.8666667" y2="79.2343933" id="Path" stroke="#363636" stroke-width="0.866666667" stroke-linecap="round"></line>
                <line x1="72.8" y1="51.2908933" x2="65.8666667" y2="51.2908933" id="Path" stroke="#363636" stroke-width="0.866666667" stroke-linecap="round"></line>
                <line x1="72.8" y1="63.2666667" x2="65.8666667" y2="63.2666667" id="Path" stroke="#363636" stroke-width="0.866666667" stroke-linecap="round"></line>
                <line x1="72.8" y1="75.24244" x2="65.8666667" y2="75.24244" id="Path" stroke="#363636" stroke-width="0.866666667" stroke-linecap="round"></line>
                <line x1="72.8" y1="47.2990267" x2="65.8666667" y2="47.2990267" id="Path" stroke="#363636" stroke-width="0.866666667" stroke-linecap="round"></line>
                <line x1="72.8" y1="59.2748" x2="65.8666667" y2="59.2748" id="Path" stroke="#363636" stroke-width="0.866666667" stroke-linecap="round"></line>
                <line x1="72.8" y1="71.2504867" x2="65.8666667" y2="71.2504867" id="Path" stroke="#363636" stroke-width="0.866666667" stroke-linecap="round"></line>
                <path d="M45.5984533,24.2666667 L61.0015467,24.2666667 C62.2524933,24.2666667 63.2666667,25.28084 63.2666667,26.5317867 L63.2666667,85.8 L43.3333333,85.8 L43.3333333,26.5317867 C43.3333333,25.28084 44.3475067,24.2666667 45.5984533,24.2666667 Z" id="Path" stroke="#363636" stroke-width="0.866666667" fill="#EEEEEE"></path>
                <path d="M61.0015467,24.2666667 C62.2524933,24.2666667 63.2666667,25.28084 63.2666667,26.5317867 L63.2666667,26.728 L47.8791733,26.728 C46.67624,26.728 45.6924,27.6656467 45.6184733,28.84986 L45.6140533,28.99312 L45.6135333,85.8 L43.3333333,85.8 L43.3333333,26.5317867 C43.3333333,25.28084 44.3475067,24.2666667 45.5984533,24.2666667 L61.0015467,24.2666667 Z" id="Path" fill-opacity="0.1" fill="#363636"></path>
                <line x1="58.40354" y1="30.3333333" x2="58.40354" y2="31.2" id="Path" stroke="#363636" stroke-width="0.9438" stroke-linecap="round"></line>
                <line x1="54.1666667" y1="30.3333333" x2="54.1666667" y2="31.2" id="Path" stroke="#363636" stroke-width="0.9438" stroke-linecap="round"></line>
                <line x1="49.9297933" y1="30.3333333" x2="49.9297933" y2="31.2" id="Path" stroke="#363636" stroke-width="0.9438" stroke-linecap="round"></line>
                <line x1="58.40354" y1="44.2" x2="58.40354" y2="45.0666667" id="Path" stroke="#363636" stroke-width="0.9438" stroke-linecap="round"></line>
                <line x1="54.1666667" y1="44.2" x2="54.1666667" y2="45.0666667" id="Path" stroke="#363636" stroke-width="0.9438" stroke-linecap="round"></line>
                <line x1="49.9297933" y1="44.2" x2="49.9297933" y2="45.0666667" id="Path" stroke="#363636" stroke-width="0.9438" stroke-linecap="round"></line>
                <line x1="58.40354" y1="58.0666667" x2="58.40354" y2="58.9333333" id="Path" stroke="#363636" stroke-width="0.866666667" stroke-linecap="round"></line>
                <line x1="54.1666667" y1="58.0666667" x2="54.1666667" y2="58.9333333" id="Path" stroke="#363636" stroke-width="0.866666667" stroke-linecap="round"></line>
                <line x1="49.9297933" y1="58.0666667" x2="49.9297933" y2="58.9333333" id="Path" stroke="#363636" stroke-width="0.866666667" stroke-linecap="round"></line>
                <line x1="58.40354" y1="71.9333333" x2="58.40354" y2="72.8" id="Path" stroke="#363636" stroke-width="0.866666667" stroke-linecap="round"></line>
                <line x1="54.1666667" y1="71.9333333" x2="54.1666667" y2="72.8" id="Path" stroke="#363636" stroke-width="0.866666667" stroke-linecap="round"></line>
                <line x1="49.9297933" y1="71.9333333" x2="49.9297933" y2="72.8" id="Path" stroke="#363636" stroke-width="0.866666667" stroke-linecap="round"></line>
                <line x1="58.40354" y1="37.2666667" x2="58.40354" y2="38.1333333" id="Path" stroke="#363636" stroke-width="0.9438" stroke-linecap="round"></line>
                <line x1="54.1666667" y1="37.2666667" x2="54.1666667" y2="38.1333333" id="Path" stroke="#363636" stroke-width="0.9438" stroke-linecap="round"></line>
                <line x1="49.9297933" y1="37.2666667" x2="49.9297933" y2="38.1333333" id="Path" stroke="#363636" stroke-width="0.9438" stroke-linecap="round"></line>
                <line x1="58.40354" y1="51.1333333" x2="58.40354" y2="52" id="Path" stroke="#363636" stroke-width="0.9438" stroke-linecap="round"></line>
                <line x1="54.1666667" y1="51.1333333" x2="54.1666667" y2="52" id="Path" stroke="#363636" stroke-width="0.9438" stroke-linecap="round"></line>
                <line x1="49.9297933" y1="51.1333333" x2="49.9297933" y2="52" id="Path" stroke="#363636" stroke-width="0.9438" stroke-linecap="round"></line>
                <line x1="58.40354" y1="65" x2="58.40354" y2="65.8666667" id="Path" stroke="#363636" stroke-width="0.866666667" stroke-linecap="round"></line>
                <line x1="54.1666667" y1="65" x2="54.1666667" y2="65.8666667" id="Path" stroke="#363636" stroke-width="0.866666667" stroke-linecap="round"></line>
                <line x1="49.9297933" y1="65" x2="49.9297933" y2="65.8666667" id="Path" stroke="#363636" stroke-width="0.866666667" stroke-linecap="round"></line>
                <path d="M52.0771333,78 L57.1228667,78 C57.64408,78 58.0666667,78.4225867 58.0666667,78.9438 L58.0666667,85.8 L51.1333333,85.8 L51.1333333,78.9438 C51.1333333,78.4225867 51.55592,78 52.0771333,78 Z" id="Path" stroke="#363636" stroke-width="0.866666667" fill="url(#linearGradient-1)"></path>
                <path d="M28.26512,54.6 L43.6682133,54.6 C44.9192467,54.6 45.9333333,55.6141733 45.9333333,56.86512 L45.9333333,85.8 L26,85.8 L26,56.86512 C26,55.6141733 27.0140867,54.6 28.26512,54.6 Z" id="Path" stroke="#363636" stroke-width="0.866666667" fill="#FFFFFF"></path>
                <path d="M43.6982,54.6 C44.8656,54.6 45.82682,55.48322 45.9499733,56.6179467 C45.90014,56.6145667 45.8500467,56.61292 45.79952,56.61292 L30.3665267,56.61292 C29.1154933,56.61292 28.1014067,57.6270067 28.1014067,58.87804 L28.1008,85.8 L26,85.8 L26,56.86512 C26,55.6141733 27.0140867,54.6 28.26512,54.6 L43.6982,54.6 Z" id="Path" fill-opacity="0.1" fill="#363636"></path>
                <line x1="41.0702067" y1="58.9333333" x2="41.0702067" y2="69.0444733" id="Path" stroke="#363636" stroke-width="0.866666667" stroke-linecap="round"></line>
                <line x1="36.8333333" y1="58.9333333" x2="36.8333333" y2="69.0444733" id="Path" stroke="#363636" stroke-width="0.866666667" stroke-linecap="round"></line>
                <line x1="32.59646" y1="58.9333333" x2="32.59646" y2="69.0444733" id="Path" stroke="#363636" stroke-width="0.866666667" stroke-linecap="round"></line>
                <line x1="41.0702067" y1="73.0889467" x2="41.0702067" y2="83.2" id="Path" stroke="#363636" stroke-width="0.866666667" stroke-linecap="round"></line>
                <line x1="36.8333333" y1="73.0889467" x2="36.8333333" y2="83.2" id="Path" stroke="#363636" stroke-width="0.866666667" stroke-linecap="round"></line>
                <line x1="32.59646" y1="73.0889467" x2="32.59646" y2="83.2" id="Path" stroke="#363636" stroke-width="0.866666667" stroke-linecap="round"></line>
                <path d="M85.8770467,29.0394867 C87.2664,29.0394867 88.3930667,27.9129933 88.3930667,26.5232933 C88.3930667,25.3295467 87.5619333,24.3307133 86.44636,24.07262 C86.4235667,21.5468067 84.3693067,19.5061533 81.83812,19.5061533 C80.1003667,19.5061533 78.5874267,20.4681533 77.8022267,21.8884467 C77.5632867,21.7850533 77.2999067,21.7275067 77.0230933,21.7275067 C76.0256467,21.7275067 75.2024867,22.47128 75.0764733,23.43432 C73.7785533,23.6916333 72.8,24.83624 72.8,26.2096467 C72.8,27.7725933 74.06698,29.0394867 75.62984,29.0394867 C76.0651667,29.0394867 85.5788267,29.0394867 85.8770467,29.0394867 Z" id="Path" fill-opacity="0.1" fill="#000000" fill-rule="nonzero"></path>
                <path d="M31.4994333,41.17282 C32.6364133,41.17282 33.5581133,40.25112 33.5581133,39.11414 C33.5581133,38.1374067 32.8776933,37.32014 31.9652667,37.10902 C31.9465467,35.0424533 30.26582,33.37282 28.1948333,33.37282 C26.77298,33.37282 25.5352067,34.1599267 24.8927467,35.3219533 C24.6972267,35.2373667 24.4817733,35.1903067 24.2552267,35.1903067 C23.4391733,35.1903067 22.7656867,35.7987933 22.6625533,36.5867667 C21.6006267,36.79728 20.8,37.7338 20.8,38.85752 C20.8,40.1362867 21.83662,41.17282 23.1153,41.17282 C23.4715,41.17282 31.25538,41.17282 31.4994333,41.17282 Z" id="Path" fill-opacity="0.1" fill="#000000" fill-rule="nonzero"></path>
                <path d="M80.5062267,85.3666667 L23.8333333,85.3666667 C23.5940467,85.3666667 23.4,85.5607133 23.4,85.8 C23.4,86.0393733 23.5940467,86.2333333 23.8333333,86.2333333 L80.5062267,86.2333333 C80.7455133,86.2333333 80.93956,86.0393733 80.93956,85.8 C80.93956,85.5607133 80.7455133,85.3666667 80.5062267,85.3666667 Z" id="Path" fill="#363636" fill-rule="nonzero"></path>
            </g>
        </g>
    </g>
</svg>
