<svg width="53" height="53" viewBox="0 0 53 53" fill="none" xmlns="http://www.w3.org/2000/svg">
<mask id="mask0_1085_4635" style="mask-type:alpha" maskUnits="userSpaceOnUse" x="2" y="2" width="49" height="49">
<path d="M26.4999 2.80005C39.7542 2.80005 50.5 13.5458 50.5 26.8004C50.5 40.0551 39.7542 50.8 26.4999 50.8C13.2452 50.8 2.5 40.0551 2.5 26.8004C2.5 13.5458 13.2452 2.80005 26.4999 2.80005Z" fill="white"/>
</mask>
<g mask="url(#mask0_1085_4635)">
<path d="M26.4951 2.61401C39.8493 2.61401 50.676 13.4431 50.676 26.8005C50.676 40.1579 39.8493 50.9861 26.4951 50.9861C13.1406 50.9861 2.31445 40.1579 2.31445 26.8005C2.31445 13.4431 13.1406 2.61401 26.4951 2.61401Z" fill="url(#paint0_linear_1085_4635)"/>
<path d="M36.3829 44.572C35.9228 44.8482 32.7119 44.8475 26.7504 44.57C26.7504 44.57 24.3578 45.4824 20.7248 43.4542C20.018 43.0596 18.9952 41.7392 17.6562 39.4929C18.6699 38.9444 19.2767 38.5608 19.4768 38.3419C20.6345 37.0755 21.2964 33.204 21.2964 33.204L27.1533 33.4988V33.4417L32.3244 33.1248C32.3244 33.1248 32.9858 36.9963 34.144 38.263C34.5436 38.7 35.7988 39.2509 36.62 39.7941C38.1791 40.8252 37.383 43.9717 36.3829 44.572Z" fill="#FDCAA0"/>
<path d="M16.707 39.9392C17.3258 39.6387 17.6351 39.4884 17.6351 39.4884C17.6351 39.4884 21.0588 43.5099 27.0286 43.5099C32.9984 43.5099 35.6103 39.1306 35.6103 39.1306C35.6103 39.1306 35.8741 39.2514 36.4018 39.4929C34.1701 42.6173 31.0457 44.1795 27.0286 44.1795C23.0116 44.1795 19.571 42.766 16.707 39.9392Z" fill="#D86000"/>
<path d="M35.6112 39.1304C35.6112 39.1304 42.1493 42.5612 43.2093 43.1191C43.3744 43.206 43.5861 43.4167 43.8445 43.7511L43.8449 43.7516C39.4485 48.2497 33.314 51.0417 26.5274 51.0417C19.7494 51.0417 13.6218 48.2568 9.22656 43.7687L9.22696 43.7683C9.50858 43.4381 9.75193 43.2217 9.957 43.1191C11.1448 42.5252 17.636 39.4882 17.636 39.4882C17.636 39.4882 21.0597 43.5097 27.0295 43.5097C32.9993 43.5097 35.6112 39.1304 35.6112 39.1304Z" fill="white"/>
<path d="M16.707 39.939C17.3258 39.6384 17.6351 39.4882 17.6351 39.4882C17.6351 39.4882 21.0588 43.5097 27.0286 43.5097C32.9984 43.5097 35.6103 39.1304 35.6103 39.1304C35.6103 39.1304 35.8741 39.2511 36.4018 39.4926C34.1701 42.617 31.0457 44.1792 27.0286 44.1792C23.0116 44.1792 19.571 42.7658 16.707 39.939Z" fill="#D86000"/>
<path fill-rule="evenodd" clip-rule="evenodd" d="M20.7271 35.2524C23.2681 36.6365 25.1651 37.2874 26.4179 37.2051C29.6889 36.9903 32.8609 34.4354 32.9027 34.8032C32.989 35.5635 33.0493 36.2998 32.9714 36.3876C31.7277 37.7911 29.4025 39.275 27.0009 39.4525C24.5994 39.63 20.5039 36.8704 20.5039 36.8704L20.7271 35.2524Z" fill="#F1BE94"/>
<path fill-rule="evenodd" clip-rule="evenodd" d="M34.5685 32.2728C33.8514 35.1197 28.6731 36.3059 26.7609 36.2268C24.8489 36.1473 23.4149 36.3059 20.7065 34.3286C17.9978 32.3517 17.8383 29.5839 17.8383 29.5839C17.8383 29.5839 17.7445 28.7028 17.6554 27.2423C17.4725 27.2277 17.2719 21.9208 17.4949 22.1535C17.491 20.1701 17.557 17.9421 17.7587 15.6655C18.3959 8.4691 27.2391 9.57646 27.2391 9.57646C35.2058 10.0509 35.2851 14.2426 35.6835 16.3776C35.8443 17.2401 35.8101 19.5358 35.665 22.1533C35.8642 21.9456 35.7741 26.3571 35.6787 27.2742C35.667 27.3859 34.849 31.1574 34.5685 32.2728Z" fill="#FDCAA0"/>
<path fill-rule="evenodd" clip-rule="evenodd" d="M34.5674 32.273C33.8911 34.9579 29.2466 36.1658 27.1163 36.2281C27.0307 36.2306 26.9118 36.2302 26.7598 36.227C27.0786 18.4601 27.238 9.57666 27.238 9.57666C27.4138 9.58713 27.5858 9.59941 27.754 9.61343C35.2083 10.235 35.2928 14.2899 35.6824 16.3778C35.8432 17.2403 35.809 19.536 35.6639 22.1534C35.8631 21.9458 35.773 26.3573 35.6775 27.2744C35.6659 27.3861 34.8479 31.1576 34.5674 32.273Z" fill="#F1BE94"/>
<path fill-rule="evenodd" clip-rule="evenodd" d="M30.9351 21.4717C31.5204 21.4717 31.9951 21.9459 31.9951 22.5322C31.9951 23.1176 31.5204 23.5918 30.9351 23.5918C30.3487 23.5918 29.875 23.1176 29.875 22.5322C29.875 21.9459 30.3487 21.4717 30.9351 21.4717Z" fill="black"/>
<path fill-rule="evenodd" clip-rule="evenodd" d="M20.7278 11.9704C23.306 12.659 25.2216 12.9622 26.4744 12.8799C29.7454 12.6651 32.8616 11.1535 32.9034 11.5213C32.9793 12.1895 33.6563 13.1191 33.6158 13.3263C33.6103 13.3548 29.4339 14.3762 27.0323 14.5537C24.6308 14.7312 19.7793 13.5494 19.7793 13.5494L20.7278 11.9704Z" fill="black" fill-opacity="0.03"/>
<path fill-rule="evenodd" clip-rule="evenodd" d="M22.5112 21.4717C23.0981 21.4717 23.5713 21.946 23.5713 22.532C23.5713 23.1175 23.0981 23.5918 22.5112 23.5918C21.9264 23.5918 21.4512 23.1175 21.4512 22.532C21.4512 21.946 21.9264 21.4717 22.5112 21.4717Z" fill="black"/>
<path d="M23.793 31.5701H29.3164L28.4237 32.3512C27.2378 32.8237 26.2707 32.9353 25.5225 32.6859C24.7743 32.4365 24.1978 32.0646 23.793 31.5701Z" fill="white"/>
<path d="M26.6381 32.6856C28.4633 32.6856 29.2898 31.5497 29.2898 31.5497L29.5993 31.4534C29.5993 31.4534 29.0952 33.1642 26.6381 33.2435C25.485 33.2807 24.4435 32.6856 23.5137 31.4581L23.9042 31.5697C24.6481 32.3136 25.5594 32.6856 26.6381 32.6856Z" fill="#E18055"/>
<path d="M26.5823 31.6816C26.6585 31.6816 27.1773 31.626 27.2518 31.6258C27.994 31.6244 28.7751 31.6244 29.5951 31.6258C29.5951 31.6258 29.4499 31.3763 28.7114 31.1726C28.3882 31.0835 27.9514 31.0031 27.3634 30.9563C27.1813 30.9419 26.9613 31.019 26.7496 31.0121C26.4083 31.0011 26.0179 30.9217 25.6896 30.9563C25.1691 31.0112 24.4438 31.2344 23.5137 31.6258C24.6199 31.6227 25.4754 31.6227 26.0801 31.6258C26.2405 31.6267 26.4202 31.6816 26.5823 31.6816Z" fill="#E18055"/>
<path d="M29.2213 19.0391C29.0916 19.2661 29.1429 19.5286 29.2257 19.7853C29.0745 19.5557 28.9975 19.3293 29.0464 19.0633C28.7101 19.2232 29.06 20.1601 29.06 20.1601C29.6769 20.1911 31.2815 19.8582 32.4675 20.0773C33.8585 20.3348 34.4302 20.5351 34.4302 20.5351C34.4302 20.5351 34.2938 19.6828 33.4175 19.374C31.6436 18.7509 30.5409 18.9875 29.2213 19.0391Z" fill="url(#paint1_linear_1085_4635)"/>
<path d="M24.312 19.7853C24.3948 19.5286 24.446 19.2661 24.3164 19.0391C22.9968 18.9875 21.8941 18.7509 20.1201 19.374C19.2439 19.6828 19.1074 20.5351 19.1074 20.5351C19.1074 20.5351 19.679 20.3348 21.07 20.0774C22.2561 19.8582 23.8608 20.1911 24.4776 20.1601C24.4776 20.1601 24.8276 19.2232 24.4911 19.0633C24.54 19.3293 24.4631 19.5557 24.312 19.7853Z" fill="url(#paint2_linear_1085_4635)"/>
<path d="M37.087 20.4559C36.7612 20.4358 36.1252 21.3091 36.1252 21.3091C35.7469 24.4042 35.6387 26.7592 35.6387 26.7592C36.8683 26.7592 37.1105 25.4324 37.5903 24.2631C38.3245 22.4754 38.7586 20.5586 37.087 20.4559Z" fill="#FDCAA0"/>
<path d="M15.9696 20.4559C16.2954 20.4358 16.9315 21.3091 16.9315 21.3091C17.3097 24.4042 17.418 26.7592 17.418 26.7592C16.1883 26.7592 15.9462 25.4324 15.4663 24.2631C14.7321 22.4754 14.2981 20.5586 15.9696 20.4559Z" fill="#FDCAA0"/>
<path d="M16.9336 26.4391C16.9336 26.4391 17.5347 20.2143 17.5941 21.7012C17.7851 26.4763 17.8225 31.2517 19.5533 31.2968C20.0488 31.3096 20.1406 30.2755 21.2883 29.5364C21.5237 29.3847 23.4055 28.111 26.7531 28.111C30.1006 28.111 31.9094 29.4978 32.0811 29.6169C32.8573 30.1553 33.5044 31.3024 33.8633 31.2968C34.9942 31.279 35.5997 28.0412 35.6799 21.5833L36.1209 25.1561C36.1209 25.1561 36.1503 25.8528 36.0703 26.9186C36.0644 27.7544 36.0011 30.4098 35.4487 31.7437C34.7877 33.3397 33.7782 34.2045 33.0683 34.9128C32.4546 35.5252 30.6002 37.0425 30.1093 37.4422L30.0918 37.4633C30.0918 37.4633 30.0781 37.4726 30.0515 37.4892C30.011 37.5221 29.989 37.5399 29.989 37.5399C29.989 37.5399 29.9951 37.532 30.0066 37.5168C29.6862 37.7094 28.4868 38.3561 26.8789 38.3195C24.6077 38.2678 23.6634 37.6551 22.9329 37.0365C22.5249 36.7516 20.7068 35.471 20.0938 34.8463C19.4017 34.1408 18.2373 33.035 17.5927 31.4457C17.4848 31.1794 17.3945 30.8633 17.319 30.5215C17.2156 30.1431 17.1343 29.6374 17.0687 28.8883C16.943 27.6698 16.9341 26.5712 16.9336 26.497V26.493L16.9366 26.521L16.9336 26.4391ZM26.6415 29.8405C23.6916 29.8353 21.7 31.1853 21.8543 32.0096C22.0929 33.2836 23.2585 34.3246 23.9019 34.7661C24.8323 35.4045 25.1999 33.8854 26.6508 33.8854C28.0742 33.8854 28.4157 35.3157 29.2131 34.802C30.1898 34.173 31.2079 32.9771 31.3968 31.7946C31.5784 30.6581 28.6027 29.8441 26.6415 29.8405Z" fill="#424141"/>
<path d="M36.1205 25.2098C36.8559 18.4811 37.0304 14.1404 36.644 12.1879C36.0643 9.25905 34.5185 8.08753 33.3592 7.89227C32.1998 7.69702 29.8811 6.13499 28.1421 6.13499C26.4031 6.13499 25.6302 5.74448 24.0844 6.13499C23.111 6.38091 21.7352 6.33609 19.9571 6.00054C19.8519 5.98067 19.7504 6.04994 19.7306 6.15525C19.7267 6.17602 19.7262 6.19729 19.7291 6.21822C19.7526 6.38533 19.723 6.55243 19.6403 6.71954C19.6403 6.71954 18.9694 6.61525 17.6277 6.40666C17.3355 6.36124 17.0557 6.54225 16.9773 6.82747C16.5127 8.51674 16.6919 9.71778 17.5148 10.4306C17.5148 10.4306 16.3555 12.5784 16.3555 14.3357C16.3555 14.3357 16.5649 18.3695 16.9837 26.4373C17.3523 22.2735 17.923 19.4112 18.6959 17.8502C18.3095 15.6374 19.447 13.7126 20.9928 13.192C20.9928 13.192 25.0505 13.973 26.5963 13.7777C26.5963 13.7777 31.2337 13.5825 32.1998 13.192C32.9727 13.192 34.0459 14.7262 34.3035 16.6787V17.7641C34.3035 17.8187 34.3265 17.8708 34.3669 17.9076C35.0295 18.5111 35.5442 21.2781 35.9531 24.4845C35.9869 24.7496 36.0427 24.9913 36.1205 25.2098Z" fill="#545351"/>
<path d="M22.2712 6.28442C21.5956 6.25904 20.8244 6.16455 19.9575 6.00096C19.8522 5.98109 19.7508 6.05036 19.7309 6.15567C19.727 6.17644 19.7265 6.19771 19.7295 6.21864C19.7529 6.38574 19.7233 6.55285 19.6406 6.71996C19.6406 6.71996 19.8334 8.21623 20.6663 9.2536C22.3802 11.3881 25.5564 13.9095 26.5967 13.7782C26.5967 13.7782 24.263 11.8985 22.9538 9.69994C22.407 8.78171 22.4805 6.29228 22.2712 6.28442Z" fill="url(#paint3_linear_1085_4635)"/>
<path d="M36.122 25.21C36.8574 18.4813 37.0319 14.1406 36.6455 12.1881C36.5437 11.6738 36.3322 11.0196 36.0111 10.2253C36.1943 10.6321 35.8407 11.1822 34.9503 11.8756C34.3374 12.353 33.4242 12.7919 32.2109 13.1923C32.2743 13.1968 32.324 13.2035 32.36 13.2124C33.114 13.3991 34.0646 14.8569 34.305 16.6789V17.7643C34.305 17.8189 34.328 17.871 34.3684 17.9078C35.031 18.5113 35.5456 21.2783 35.9546 24.4847C35.9884 24.7498 36.0442 24.9915 36.122 25.21Z" fill="url(#paint4_linear_1085_4635)"/>
<path d="M17.5148 10.4304C16.7419 11.8623 16.3555 13.164 16.3555 14.3355C16.3555 14.3355 16.5649 18.3694 16.9837 26.4371C17.3523 22.2734 17.923 19.411 18.6959 17.8501C18.3095 15.6372 19.447 13.7125 20.9928 13.1918C20.9928 13.1918 19.742 12.9775 18.7132 12.1542C18.1393 11.695 17.7398 11.1204 17.5148 10.4304Z" fill="url(#paint5_linear_1085_4635)"/>
</g>
<defs>
<linearGradient id="paint0_linear_1085_4635" x1="26.4952" y1="75.1722" x2="74.8673" y2="26.8106" gradientUnits="userSpaceOnUse">
<stop stop-color="#FF7100"/>
<stop offset="1" stop-color="#F6DA35"/>
</linearGradient>
<linearGradient id="paint1_linear_1085_4635" x1="34.1314" y1="19.7585" x2="28.9149" y2="19.4717" gradientUnits="userSpaceOnUse">
<stop stop-color="#3F3C3B"/>
<stop offset="1" stop-color="#38312D"/>
</linearGradient>
<linearGradient id="paint2_linear_1085_4635" x1="24.3384" y1="19.7585" x2="19.1219" y2="19.4717" gradientUnits="userSpaceOnUse">
<stop stop-color="#3F3C3B"/>
<stop offset="1" stop-color="#38312D"/>
</linearGradient>
<linearGradient id="paint3_linear_1085_4635" x1="20.3422" y1="5.99756" x2="23.6469" y2="14.172" gradientUnits="userSpaceOnUse">
<stop stop-color="#434240"/>
<stop offset="1" stop-color="#545351"/>
</linearGradient>
<linearGradient id="paint4_linear_1085_4635" x1="34.5316" y1="10.5995" x2="34.4429" y2="26.417" gradientUnits="userSpaceOnUse">
<stop stop-color="#444444"/>
<stop offset="1" stop-color="#30241E"/>
</linearGradient>
<linearGradient id="paint5_linear_1085_4635" x1="18.6773" y1="10.8301" x2="18.5884" y2="27.7265" gradientUnits="userSpaceOnUse">
<stop stop-color="#444444"/>
<stop offset="1" stop-color="#30241E"/>
</linearGradient>
</defs>
</svg>
