<svg width="275" height="246" viewBox="0 0 275 246" fill="none" xmlns="http://www.w3.org/2000/svg">
  <defs>
    <svg width="136" height="136" viewBox="0 0 136 136" fill="none" xmlns="http://www.w3.org/2000/svg" id="house">
      <path fill-rule="evenodd" clip-rule="evenodd" d="M35.9436 57.3153L64.8776 31.0018C67.1126 28.9693 70.5121 28.9534 72.7658 30.9651L102.282 57.3115C103.544 58.4381 104.267 60.0535 104.267 61.7499V109.933H34V61.7169C34 60.0397 34.706 58.4407 35.9436 57.3153Z" fill="#F8F8F8" stroke="#CCCCCC"/>
      <path fill-rule="evenodd" clip-rule="evenodd" d="M80.0543 74.7998H88.8123C90.4624 74.7998 91.8 76.1554 91.8 77.8277V109.933H77.0667V77.8277C77.0667 76.1554 78.4043 74.7998 80.0543 74.7998Z" stroke="#CCCCCC"/>
      <path d="M87.1638 93.3228V96.7598" stroke="#999999" stroke-linecap="round"/>
      <path d="M60.5364 90.667H56.1968C54.5785 90.667 53.2666 89.4037 53.2666 87.8453V78.7554C53.2666 77.197 54.5785 75.9337 56.1968 75.9337H60.5364C62.1547 75.9337 63.4666 77.197 63.4666 78.7554V87.8453C63.4666 89.4037 62.1547 90.667 60.5364 90.667Z" stroke="#CCCCCC"/>
      <path fill-rule="evenodd" clip-rule="evenodd" d="M36.2666 51L43.0666 45.0575V39.2042C43.0666 37.5819 41.7547 36.2667 40.1364 36.2667H39.1968C37.5785 36.2667 36.2666 37.5819 36.2666 39.2042V51Z" fill="#F8F8F8" stroke="#CCCCCC" stroke-width="1.089"/>
      <path d="M62.8793 26.9554C65.7546 24.3798 70.055 24.2591 73.0658 26.6272L73.3071 26.8247L113.274 60.857C114.701 62.072 114.872 64.2126 113.655 65.638C112.486 67.0086 110.46 67.2189 109.037 66.1529L108.869 66.0188L68.9022 31.9865C68.5069 31.6499 67.939 31.6286 67.5222 31.9184L67.4125 32.0052L29.4617 66.0004C28.0658 67.2509 25.9193 67.1341 24.6675 65.7397C23.4638 64.3989 23.5256 62.3649 24.7731 61.0988L24.9285 60.9506L62.8793 26.9554Z" fill="#F8F8F8" stroke="#CCCCCC"/>
      <path d="M43.4894 35.1338H35.8439C34.8256 35.1338 34 35.8949 34 36.8338C34 37.7727 34.8256 38.5338 35.8439 38.5338H43.4894C44.5078 38.5338 45.3333 37.7727 45.3333 36.8338C45.3333 35.8949 44.5078 35.1338 43.4894 35.1338Z" fill="#CCCCCC"/>
    </svg>


  </defs>

  <rect width="280" height="250" rx="0" fill="#EEEEEE" />
  <use x="75" y="60" width="130" height="130" href="#house">
  </use>
</svg>

