<svg width="24" height="24" viewBox="0 0 24 24" fill="none" xmlns="http://www.w3.org/2000/svg">
  <path fill-rule="evenodd" clip-rule="evenodd" d="M5.32901 3.25L18.7685 3.25001C18.8546 3.24977 18.9406 3.25589 19.0258 3.26832C19.9821 3.40776 20.6443 4.2959 20.5054 5.25122C20.1937 7.41598 19.508 9.12444 18.432 10.3629C17.3936 11.5581 16.2 12.3559 14.8627 12.7412L14.6229 12.804L14.623 18.1504C14.6223 18.6395 14.4172 19.1034 14.0614 19.4328L13.9373 19.5374C13.4668 19.8977 12.9755 20.2543 12.4635 20.6074C12.0775 20.8736 11.6976 21.1252 11.3258 21.3611C11.1254 21.4891 10.8927 21.5568 10.6552 21.5568C9.96487 21.557 9.40511 20.9974 9.40498 20.3069L9.40489 12.746L9.3565 12.7317C5.663 11.517 3.69965 9.0029 3.58436 5.29878L3.5791 5.00388C3.579 4.03466 4.36144 3.25008 5.32901 3.25ZM18.7705 4.75H5.32907C5.19086 4.75001 5.07909 4.86209 5.07909 5.00023C5.09515 8.37129 6.80472 10.4801 10.3559 11.4676C10.6804 11.5578 10.905 11.8533 10.905 12.1901L10.9049 19.847L11.2437 19.6232L11.612 19.3725C12.1038 19.0334 12.5749 18.6914 13.0248 18.3469C13.0866 18.2995 13.1229 18.2261 13.123 18.1494V12.1901C13.123 11.8185 13.3951 11.503 13.7627 11.4483C15.0932 11.2505 16.2653 10.5696 17.2997 9.37911C18.1682 8.37943 18.7473 6.93678 19.0209 5.03647C19.0408 4.8996 18.946 4.77255 18.8094 4.75262C18.7972 4.75084 18.7849 4.74997 18.7705 4.75Z" fill="#363636"/>
</svg>
