<svg width="99" height="89" viewBox="0 0 99 89" fill="none" xmlns="http://www.w3.org/2000/svg">
<g id="ribbon">
<g id="Group 12" clip-path="url(#clip0_4916_64600)">
<g id="Rectangle">
<rect width="129.808" height="31.2724" transform="matrix(0.753143 -0.673558 0.689929 0.709586 -27.0005 62.8477)" fill="#0FCA80"/>
<rect width="129.808" height="31.2724" transform="matrix(0.753143 -0.673558 0.689929 0.709586 -27.0005 62.8477)" fill="url(#paint0_linear_4916_64600)"/>
</g>
<path id="adress copy 19" d="M14.5837 54.7613C14.5069 54.831 14.4249 54.8681 14.3377 54.8724C14.2512 54.8637 14.1727 54.8227 14.1025 54.7493L11.2482 51.7673C10.814 51.3137 10.3566 51.0743 9.876 51.0493C9.39602 51.0113 8.89427 51.2299 8.37075 51.7052L6.90488 53.036C6.82809 53.1057 6.74292 53.1394 6.64936 53.137C6.56278 53.1284 6.48437 53.0873 6.41413 53.0139L5.86817 52.4436C5.80432 52.3768 5.77098 52.3011 5.76816 52.2164C5.77233 52.1253 5.8128 52.045 5.88958 51.9753L7.41828 50.5874C8.03255 50.0298 8.62512 49.6539 9.196 49.4598C9.76748 49.2526 10.3268 49.2373 10.8741 49.4138C11.4283 49.5839 11.9768 49.9525 12.5196 50.5196L15.4218 53.5516C15.4856 53.6183 15.5155 53.6972 15.5113 53.7882C15.5141 53.873 15.4772 53.9502 15.4004 54.0199L14.5837 54.7613ZM13.0188 47.4854C12.949 47.5487 12.8673 47.5793 12.7738 47.5769C12.6802 47.5746 12.5983 47.5367 12.5281 47.4633L11.9821 46.893C11.9183 46.8262 11.8884 46.7474 11.8926 46.6563C11.8967 46.5652 11.9337 46.488 12.0035 46.4247L14.5793 44.0863C15.1935 43.5286 15.7893 43.156 16.3666 42.9686C16.9444 42.7682 17.5137 42.7563 18.0743 42.9331C18.6285 43.1033 19.1674 43.4618 19.691 44.0089L22.5933 47.0409C22.6571 47.1076 22.687 47.1865 22.6828 47.2776C22.6786 47.3686 22.6416 47.4458 22.5718 47.5092L21.7447 48.2602C21.6679 48.3299 21.5859 48.3669 21.4987 48.3712C21.4122 48.3626 21.3337 48.3215 21.2635 48.2481L18.4092 45.2661C17.975 44.8125 17.5176 44.5732 17.037 44.5481C16.557 44.5101 16.0553 44.7287 15.5317 45.204L13.0188 47.4854ZM13.5845 45.8684L13.9405 45.5452C14.0941 45.4057 14.2275 45.3407 14.3408 45.3501C14.4611 45.3531 14.5526 45.4009 14.6153 45.4937C14.7823 45.7909 14.9471 46.0652 15.1095 46.3167C15.2726 46.5552 15.4458 46.7907 15.6292 47.0232C15.8196 47.2493 16.0393 47.4925 16.2883 47.7527L18.9076 50.3869C18.9715 50.4536 19.0013 50.5325 18.9972 50.6236C19 50.7083 18.963 50.7855 18.8862 50.8552L17.0548 52.4992C16.985 52.5626 16.9033 52.5931 16.8097 52.5908C16.7162 52.5884 16.6375 52.5539 16.5736 52.4872L16.0564 51.9468C15.9925 51.8801 15.9627 51.8012 15.9668 51.7102C15.971 51.6191 16.008 51.5419 16.0778 51.4785L16.9145 50.7376L15.1234 48.8663C14.8872 48.6195 14.6703 48.3862 14.473 48.1664C14.2826 47.9402 14.0995 47.7012 13.9237 47.4494C13.7549 47.1912 13.5843 46.8972 13.4121 46.5673C13.3634 46.4619 13.3449 46.354 13.3566 46.2436C13.362 46.1265 13.4379 46.0014 13.5845 45.8684ZM24.452 45.8023C24.3822 45.8656 24.3005 45.8962 24.207 45.8938C24.1134 45.8915 24.0347 45.857 23.9709 45.7902L18.9614 40.5567C18.8976 40.49 18.8677 40.4111 18.8719 40.3201C18.8761 40.229 18.9131 40.1518 18.9829 40.0884L19.8519 39.2995C19.9217 39.2361 20.0034 39.2056 20.097 39.2079C20.1905 39.2102 20.2692 39.2448 20.3331 39.3115L25.3425 44.545C25.4063 44.6117 25.4362 44.6906 25.432 44.7817C25.4279 44.8727 25.3909 44.9499 25.3211 45.0133L24.452 45.8023ZM24.9598 40.9649C24.89 41.0283 24.8083 41.0588 24.7148 41.0565C24.6212 41.0541 24.5425 41.0196 24.4786 40.9529L21.7105 38.061C21.6467 37.9942 21.6168 37.9154 21.621 37.8243C21.6251 37.7332 21.6621 37.656 21.7319 37.5927L22.601 36.8037C22.6778 36.734 22.7595 36.7035 22.846 36.7121C22.9396 36.7145 23.0183 36.749 23.0822 36.8157L25.8503 39.7077C25.9141 39.7744 25.944 39.8533 25.9398 39.9443C25.9426 40.029 25.9056 40.1062 25.8289 40.176L24.9598 40.9649ZM29.733 41.0079C29.6632 41.0713 29.5815 41.1018 29.488 41.0994C29.3944 41.0971 29.3157 41.0626 29.2518 40.9959L28.6963 40.4155C28.6324 40.3488 28.6026 40.2699 28.6068 40.1788C28.6109 40.0878 28.6479 40.0106 28.7177 39.9472L31.5447 37.3806L29.4854 35.2292C29.0448 34.7689 28.5877 34.523 28.1141 34.4917C27.6342 34.4536 27.1324 34.6723 26.6089 35.1475L25.3838 36.2597C25.314 36.3231 25.2323 36.3536 25.1388 36.3513C25.0452 36.3489 24.9665 36.3144 24.9027 36.2477L24.3471 35.6673C24.2833 35.6006 24.2534 35.5217 24.2576 35.4306C24.2617 35.3396 24.2987 35.2624 24.3685 35.199L25.6459 34.0393C26.2602 33.4816 26.863 33.1027 27.4542 32.9026C28.039 32.6959 28.6118 32.6809 29.1724 32.8577C29.74 33.0281 30.2951 33.3969 30.8379 33.9639L32.9164 36.1354L33.2933 35.7932C33.3631 35.7298 33.4448 35.6993 33.5384 35.7016C33.6319 35.704 33.7106 35.7385 33.7745 35.8052L34.33 36.3856C34.3939 36.4523 34.4237 36.5312 34.4196 36.6223C34.4154 36.7133 34.3784 36.7905 34.3086 36.8539L29.733 41.0079ZM41.2444 32.8763C41.1606 32.9524 41.0751 32.9926 40.988 32.9969C40.9141 33.0016 40.8412 32.9867 40.7692 32.9524L32.0311 28.9345C31.9724 28.9005 31.93 28.8766 31.9039 28.8629C31.8778 28.8493 31.8519 28.8291 31.8264 28.8024C31.7753 28.749 31.7515 28.6833 31.7551 28.6053C31.7657 28.5209 31.7989 28.4533 31.8547 28.4026L32.7028 27.6327C32.7866 27.5566 32.8717 27.5229 32.9583 27.5316C33.0455 27.5273 33.1382 27.5491 33.2363 27.5972L36.7258 29.1983C37.0604 28.7574 37.2042 28.3214 37.157 27.8905C37.1167 27.4532 36.8923 27.0211 36.4836 26.5941L35.4971 25.5634C35.4268 25.4901 35.3903 25.411 35.3875 25.3263C35.3916 25.2352 35.4321 25.1549 35.5089 25.0851L36.2418 24.4197C36.3186 24.35 36.4003 24.3195 36.4869 24.3282C36.5804 24.3305 36.6623 24.3684 36.7326 24.4418L37.7766 25.5325C38.2236 25.9995 38.5261 26.4791 38.6843 26.9715C38.8424 27.4638 38.8768 27.9563 38.7873 28.4489C38.6979 28.9416 38.5021 29.4185 38.2 29.8798L41.9056 31.584C42.0171 31.6324 42.0889 31.6732 42.1208 31.7066C42.1719 31.76 42.1921 31.8288 42.1816 31.9132C42.178 31.9913 42.1483 32.0557 42.0925 32.1064L41.2444 32.8763ZM44.5014 27.806C44.4513 27.8764 44.376 27.9136 44.2755 27.9176C44.175 27.9216 44.0928 27.8902 44.0289 27.8235L43.3489 27.1131C43.285 27.0463 43.2485 26.9673 43.2393 26.8759C43.2301 26.7845 43.2511 26.6906 43.3023 26.5942L43.5347 26.1214C43.6826 25.8126 43.7873 25.4994 43.8486 25.1818C43.9036 24.8576 43.872 24.5247 43.7538 24.1832C43.6362 23.8286 43.3922 23.4579 43.0219 23.071C42.6707 22.704 42.3475 22.455 42.0524 22.3239C41.7574 22.1929 41.4604 22.1757 41.1616 22.2724C40.8628 22.3691 40.5284 22.5854 40.1585 22.9213L39.8758 23.1779C39.806 23.2413 39.7243 23.2718 39.6307 23.2695C39.5372 23.2671 39.4584 23.2326 39.3946 23.1659L38.7912 22.5355C38.7273 22.4688 38.7007 22.3932 38.7112 22.3088C38.7154 22.2178 38.7524 22.1406 38.8222 22.0772L39.3561 21.5924C39.9844 21.022 40.5729 20.6623 41.1216 20.5133C41.671 20.3512 42.2114 20.3842 42.7429 20.6124C43.268 20.8339 43.8115 21.2381 44.3734 21.8252C44.814 22.2855 45.1271 22.7557 45.3125 23.2356C45.505 23.7093 45.6004 24.1838 45.5987 24.6591C45.5976 25.1214 45.5233 25.5753 45.3759 26.0209C45.2284 26.4665 45.0385 26.8883 44.8062 27.2862L44.5014 27.806ZM40.1794 22.9023L38.6621 24.2611C38.5923 24.3244 38.5138 24.3583 38.4266 24.3626C38.333 24.3603 38.2543 24.3258 38.1905 24.2591L36.2653 22.2477C36.2014 22.181 36.1716 22.1021 36.1757 22.011C36.1799 21.92 36.2169 21.8428 36.2867 21.7794L37.0405 21.095C37.1173 21.0253 37.199 20.9948 37.2856 21.0034C37.3792 21.0058 37.4579 21.0403 37.5217 21.107L38.6232 22.2578L39.1467 21.7825L40.1794 22.9023ZM47.0832 16.6159L44.2867 19.1734C44.2169 19.2368 44.1352 19.2673 44.0417 19.265C43.9481 19.2626 43.8694 19.2281 43.8055 19.1614L43.2117 18.541C43.1478 18.4743 43.118 18.3954 43.1221 18.3043C43.1263 18.2133 43.1633 18.136 43.2331 18.0727L46.2172 15.3635C46.6639 14.958 47.1547 14.687 47.6895 14.5506C48.2179 14.4075 48.7522 14.4274 49.2925 14.6102C49.8397 14.7866 50.372 15.145 50.8892 15.6854L53.7914 18.7174C53.8553 18.7842 53.8851 18.863 53.8809 18.9541C53.8838 19.0388 53.8468 19.116 53.77 19.1857L51.0058 21.6953C50.929 21.765 50.8438 21.7986 50.7503 21.7963C50.6637 21.7876 50.5885 21.7499 50.5246 21.6832L49.9691 21.1028C49.9052 21.0361 49.8719 20.9604 49.8691 20.8757C49.8732 20.7846 49.9137 20.7042 49.9905 20.6345L51.6867 19.0946L49.637 16.9532C49.356 16.6596 49.061 16.4537 48.752 16.3353C48.4429 16.2168 48.1434 16.1833 47.8533 16.2347C47.5633 16.286 47.3066 16.4131 47.0832 16.6159ZM48.608 23.8721C48.5452 23.9291 48.467 23.9564 48.3735 23.9541C48.2799 23.9518 48.205 23.9076 48.1487 23.8215L44.6704 18.2453C44.6141 18.1593 44.5912 18.0741 44.6018 17.9897C44.6123 17.9053 44.6557 17.8347 44.7319 17.778L45.4525 17.1612C45.5357 17.0981 45.6238 17.0743 45.7168 17.0896C45.8167 17.0986 45.8916 17.1428 45.9415 17.2222L49.447 22.6428C49.5173 22.7162 49.5468 22.8016 49.5357 22.899C49.5245 22.9964 49.4841 23.0768 49.4143 23.1401L48.608 23.8721ZM55.659 17.4708C55.5892 17.5342 55.5075 17.5647 55.414 17.5623C55.3204 17.56 55.2417 17.5255 55.1778 17.4588L50.1684 12.2252C50.1046 12.1585 50.0747 12.0796 50.0789 11.9886C50.0831 11.8975 50.12 11.8203 50.1898 11.7569L51.0589 10.968C51.1287 10.9046 51.2104 10.8741 51.3039 10.8764C51.3975 10.8788 51.4762 10.9133 51.5401 10.98L56.5495 16.2135C56.6133 16.2802 56.6432 16.3591 56.639 16.4502C56.6348 16.5412 56.5979 16.6184 56.5281 16.6818L55.659 17.4708ZM56.6948 7.88992L53.8983 10.4475C53.8285 10.5108 53.7468 10.5413 53.6532 10.539C53.5597 10.5367 53.481 10.5021 53.4171 10.4354L52.8233 9.81502C52.7594 9.74831 52.7296 9.66942 52.7337 9.57837C52.7379 9.48731 52.7749 9.41009 52.8447 9.34672L55.8288 6.63759C56.2755 6.23202 56.7663 5.96103 57.3011 5.82462C57.8295 5.68155 58.3638 5.70141 58.9041 5.88422C59.4513 6.06068 59.9836 6.4191 60.5008 6.95946L63.403 9.99149C63.4668 10.0582 63.4967 10.1371 63.4925 10.2281C63.4953 10.3129 63.4584 10.3901 63.3816 10.4598L60.6174 12.9693C60.5406 13.039 60.4554 13.0727 60.3618 13.0704C60.2753 13.0617 60.2 13.024 60.1362 12.9573L59.5807 12.3769C59.5168 12.3102 59.4835 12.2345 59.4806 12.1497C59.4848 12.0587 59.5253 11.9783 59.6021 11.9086L61.2983 10.3687L59.2485 8.22723C58.9676 7.9337 58.6726 7.72772 58.3635 7.6093C58.0545 7.49088 57.755 7.45735 57.4649 7.50871C57.1749 7.56006 56.9182 7.68713 56.6948 7.88992ZM58.2196 15.1461C58.1568 15.2031 58.0786 15.2305 57.985 15.2282C57.8915 15.2258 57.8166 15.1816 57.7603 15.0956L54.2819 9.51938C54.2257 9.43333 54.2028 9.3481 54.2134 9.26372C54.2239 9.17933 54.2673 9.10879 54.3435 9.05209L55.0641 8.43522C55.1473 8.37218 55.2354 8.34833 55.3283 8.36368C55.4283 8.37269 55.5032 8.41689 55.5531 8.49627L59.0586 13.9169C59.1289 13.9902 59.1584 14.0756 59.1473 14.173C59.1361 14.2704 59.0957 14.3508 59.0258 14.4142L58.2196 15.1461Z" fill="white"/>
</g>
</g>
<defs>
<linearGradient id="paint0_linear_4916_64600" x1="44.6548" y1="42.0859" x2="106.134" y2="-0.563024" gradientUnits="userSpaceOnUse">
<stop stop-color="#B19200"/>
<stop offset="1" stop-color="#F0DE89"/>
</linearGradient>
<clipPath id="clip0_4916_64600">
<rect width="72.4809" height="125" fill="white" transform="matrix(0.858728 0.512432 -0.547534 0.836783 35.9995 -42)"/>
</clipPath>
</defs>
</svg>
