<svg width="104px" height="104px" viewBox="0 0 104 104" version="1.1" xmlns="http://www.w3.org/2000/svg" xmlns:xlink="http://www.w3.org/1999/xlink">
    <title>Purchase</title>
    <defs>
        <linearGradient x1="50%" y1="-50%" x2="114.8%" y2="14.8%" id="linearGradient-1">
            <stop stop-color="#FF7100" offset="0%"></stop>
            <stop stop-color="#F6DA35" offset="100%"></stop>
        </linearGradient>
        <linearGradient x1="50%" y1="59%" x2="66.514%" y2="42.4862%" id="linearGradient-2">
            <stop stop-color="#FF7100" offset="0%"></stop>
            <stop stop-color="#F6DA35" offset="100%"></stop>
        </linearGradient>
    </defs>
    <g id="ILLU-RE" stroke="none" stroke-width="1" fill="none" fill-rule="evenodd">
        <g id="re-ad-publish" transform="translate(-1068.000000, -255.000000)">
            <g id="Purchase" transform="translate(1068.000000, 255.000000)">
                <rect id="Rectangle" fill-opacity="0.01" fill="#FFFFFF" fill-rule="nonzero" x="0" y="0" width="104" height="104"></rect>
                <path d="M52,91.8666667 C72.1032,91.8666667 88.4,89.3446667 88.4,86.2333333 C88.4,83.1220867 72.1032,80.6 52,80.6 C31.8968,80.6 15.6,83.1220867 15.6,86.2333333 C15.6,89.3446667 31.8968,91.8666667 52,91.8666667 Z" id="Path" fill="#F8F8F8" fill-rule="nonzero"></path>
                <path d="M27.4862467,43.82924 L49.6123333,23.7072333 C51.3214,22.1528667 53.9210533,22.1407333 55.64442,23.6790667 L78.2158867,43.82638 C79.1810067,44.6878467 79.7333333,45.9231933 79.7333333,47.22042 L79.7333333,84.0666667 L26,84.0666667 L26,47.1951133 C26,45.91262 26.5399333,44.68984 27.4862467,43.82924 Z" id="Path" stroke="#363636" stroke-width="0.866666667" fill="#EEEEEE"></path>
                <path d="M80.1666667,84.0666667 L25.5666667,84.0666667 C24.84872,84.0666667 24.2666667,84.64872 24.2666667,85.3666667 C24.2666667,86.0846133 24.84872,86.6666667 25.5666667,86.6666667 L80.1666667,86.6666667 C80.8846133,86.6666667 81.4666667,86.0846133 81.4666667,85.3666667 C81.4666667,84.64872 80.8846133,84.0666667 80.1666667,84.0666667 Z" id="Path" stroke="#363636" stroke-width="0.866666667" fill="#DADADA" fill-rule="nonzero"></path>
                <path d="M55.5756933,25.37574 L56.3333333,26.0328467 C55.4667533,26.14794 54.62704,26.5138467 53.93076,27.12996 L31.8490467,46.6680067 C30.8810667,47.5244467 30.3270933,48.7532933 30.3270933,50.04402 L30.3270933,84.0666667 L26,84.0666667 L26,48.31736 C26,47.02672 26.5539733,45.7977867 27.5219533,44.9413467 L49.6036667,25.4033 C51.3045,23.8983333 53.8609067,23.8865467 55.5756933,25.37574 Z" id="Path" fill-opacity="0.1" fill="#363636"></path>
                <path d="M61.21804,57.2 L67.9152933,57.2 C69.1770733,57.2 70.2,58.23662 70.2,59.5154733 L70.2,84.0666667 L58.9333333,84.0666667 L58.9333333,59.5154733 C58.9333333,58.23662 59.95626,57.2 61.21804,57.2 Z" id="Path" stroke="#363636" stroke-width="0.866666667" fill="#FFFFFF"></path>
                <line x1="66.65464" y1="71.36428" x2="66.65464" y2="73.99262" id="Path" stroke="#363636" stroke-width="0.866666667" stroke-linecap="round"></line>
                <path d="M86.7438,22.97282 C88.1330667,22.97282 89.2597333,21.84624 89.2597333,20.4566267 C89.2597333,19.26288 88.4286,18.26396 87.3132,18.0059533 C87.2906667,15.48014 85.2359733,13.4394867 82.7047867,13.4394867 C80.9670333,13.4394867 79.4540933,14.4014 78.6688933,15.82178 C78.4299533,15.7183867 78.1665733,15.66084 77.88976,15.66084 C76.8923133,15.66084 76.0691533,16.4045267 75.94314,17.3675667 C74.64522,17.6249667 73.6666667,18.7694867 73.6666667,20.14298 C73.6666667,21.70584 74.9336467,22.97282 76.4965067,22.97282 C76.9318333,22.97282 86.4454933,22.97282 86.7438,22.97282 Z" id="Path" fill-opacity="0.1" fill="#000000" fill-rule="nonzero"></path>
                <path d="M18.4994333,32.5061533 C19.6364133,32.5061533 20.5581133,31.5844533 20.5581133,30.4474733 C20.5581133,29.47074 19.8776933,28.6534733 18.9652667,28.4423533 C18.9465467,26.3757867 17.26582,24.7061533 15.1948333,24.7061533 C13.77298,24.7061533 12.5352067,25.4931733 11.8927467,26.6552867 C11.6972267,26.5707 11.4817733,26.52364 11.2552267,26.52364 C10.4391733,26.52364 9.76568667,27.1321267 9.66255333,27.9201 C8.600644,28.1306133 7.8,29.0671333 7.8,30.1908533 C7.8,31.4695333 8.83662,32.5061533 10.1153,32.5061533 C10.4715,32.5061533 18.25538,32.5061533 18.4994333,32.5061533 Z" id="Path" fill-opacity="0.1" fill="#000000" fill-rule="nonzero"></path>
                <path d="M46.2925667,69.3333333 L42.9741,69.3333333 C41.7365867,69.3333333 40.7333333,68.36726 40.7333333,67.1755933 L40.7333333,60.2244067 C40.7333333,59.03274 41.7365867,58.0666667 42.9741,58.0666667 L46.2925667,58.0666667 C47.53008,58.0666667 48.5333333,59.03274 48.5333333,60.2244067 L48.5333333,67.1755933 C48.5333333,68.36726 47.53008,69.3333333 46.2925667,69.3333333 Z" id="Path" stroke="#363636" stroke-width="0.866666667" fill="url(#linearGradient-1)" fill-rule="nonzero"></path>
                <path d="M50.8631067,83.87574 C51.8708667,83.87574 53.46302,84.68408 53.7333333,84.25456 C53.7333333,84.25456 53.7333333,84.35908 53.7333333,83.6333333 C53.7333333,82.9075867 51.2139333,81.0130533 49.9765933,80.8561867 C49.9512867,79.3206267 47.6721267,77.1333333 44.86378,77.1333333 C42.9357067,77.1333333 41.2572333,78.6649067 40.38606,79.5283667 C40.1209467,79.4655333 39.8287933,79.43052 39.52156,79.43052 C38.4149133,79.43052 37.50162,79.88266 37.3618267,80.4680933 C35.92186,80.6246133 35.0512933,81.2360467 34.8361867,82.1554067 C34.71026,82.6934333 34.5278267,83.5555933 34.8361867,83.87574 C35.0546733,84.1026333 35.57372,83.87574 36.2927933,83.87574 C36.7757867,83.87574 50.5322133,83.87574 50.8631067,83.87574 Z" id="Path" fill-opacity="0.1" fill="#000000" fill-rule="nonzero"></path>
                <path d="M27.7333333,39 L32.9333333,34.45572 L32.9333333,29.9797333 C32.9333333,28.7391 31.93008,27.7333333 30.6925667,27.7333333 L29.9741,27.7333333 C28.7365867,27.7333333 27.7333333,28.7391 27.7333333,29.9797333 L27.7333333,39 Z" id="Path" stroke="#363636" stroke-width="0.9438" fill="#EEEEEE"></path>
                <path d="M48.08414,20.6128 C50.2828733,18.6432133 53.57144,18.5508267 55.8738267,20.3618133 L56.05834,20.5127867 L86.6212533,46.5374867 C87.7127333,47.46664 87.8427333,49.1035133 86.9128,50.19352 C86.0184867,51.2416667 84.46906,51.40252 83.3811333,50.5873333 L83.2528667,50.4848067 L52.6898667,24.46002 C52.3875733,24.2027067 51.9533733,24.1863267 51.6346133,24.40802 L51.55072,24.47432 L22.52952,50.47068 C21.4620467,51.42696 19.8206667,51.3376933 18.8633467,50.2713467 C17.9429467,49.2459933 17.9900933,47.6906733 18.94412,46.7224333 L19.06294,46.6090733 L48.08414,20.6128 Z" id="Path" stroke="#363636" stroke-width="0.866666667" fill="#FFFFFF" fill-rule="nonzero"></path>
                <path d="M33.2566,26.8666667 L27.4100667,26.8666667 C26.63128,26.8666667 26,27.44872 26,28.1666667 C26,28.8846133 26.63128,29.4666667 27.4100667,29.4666667 L33.2566,29.4666667 C34.0353867,29.4666667 34.6666667,28.8846133 34.6666667,28.1666667 C34.6666667,27.44872 34.0353867,26.8666667 33.2566,26.8666667 Z" id="Path" stroke="#363636" stroke-width="0.9438" fill="url(#linearGradient-2)" fill-rule="nonzero"></path>
            </g>
        </g>
    </g>
</svg>
