<svg width="104px" height="104px" viewBox="0 0 104 104" version="1.1" xmlns="http://www.w3.org/2000/svg" xmlns:xlink="http://www.w3.org/1999/xlink">
    <title>Rent</title>
    <defs>
        <linearGradient x1="0%" y1="50.5603727%" x2="91.4386575%" y2="40.8786684%" id="linearGradient-1">
            <stop stop-color="#FF7100" offset="0%"></stop>
            <stop stop-color="#F6DA35" offset="100%"></stop>
        </linearGradient>
        <linearGradient x1="40.1232759%" y1="0%" x2="101.853534%" y2="110.79667%" id="linearGradient-2">
            <stop stop-color="#FF7100" offset="0%"></stop>
            <stop stop-color="#F6DA35" offset="100%"></stop>
        </linearGradient>
    </defs>
    <g id="ILLU-RE" stroke="none" stroke-width="1" fill="none" fill-rule="evenodd">
        <g id="re-ad-publish" transform="translate(-855.000000, -255.000000)">
            <g id="Rent" transform="translate(855.000000, 255.000000)">
                <rect id="Rectangle" fill-opacity="0.01" fill="#FFFFFF" fill-rule="nonzero" x="0" y="0" width="104" height="104"></rect>
                <path d="M52.1313867,91.9256 C72.3071267,91.9256 88.6626,89.3906 88.6626,86.2628867 C88.6626,83.1353467 72.3071267,80.6 52.1313867,80.6 C31.9556467,80.6 15.6,83.1353467 15.6,86.2628867 C15.6,89.3906 31.9556467,91.9256 52.1313867,91.9256 Z" id="Path" fill="#F8F8F8" fill-rule="nonzero"></path>
                <path d="M27.6113067,43.6956867 L49.7976267,23.6159733 C51.5113733,22.0649 54.1180467,22.0528533 55.84618,23.5878933 L78.4790067,43.6929133 C79.4469,44.55256 80.0006133,45.7853067 80.0006133,47.07976 L80.0006133,83.8486133 L26.1209867,83.8486133 L26.1209867,47.05454 C26.1209867,45.7747333 26.6623933,44.5545533 27.6113067,43.6956867 Z" id="Path" stroke="#363636" stroke-width="0.866666667" fill="#EEEEEE"></path>
                <path d="M81.01366,83.2 L25.58634,83.2 C24.8574733,83.2 24.2666667,83.7820533 24.2666667,84.5 C24.2666667,85.2179467 24.8574733,85.8 25.58634,85.8 L81.01366,85.8 C81.7425267,85.8 82.3333333,85.2179467 82.3333333,84.5 C82.3333333,83.7820533 81.7425267,83.2 81.01366,83.2 Z" id="Path" stroke="#363636" stroke-width="0.866666667" fill="#DCDCDC" fill-rule="nonzero"></path>
                <path d="M55.6183333,24.2805333 L56.3770133,24.94024 C55.50922,25.0557667 54.6682933,25.42306 53.9709733,26.0416 L31.8574533,45.6556533 C30.8881733,46.5154733 30.3333333,47.7491733 30.3333333,49.04484 L30.3333333,83.2 L26,83.2 L26,47.3115067 C26,46.01584 26.55484,44.78214 27.52412,43.92232 L49.63764,24.3082667 C51.3409867,22.7974067 53.9010333,22.7855333 55.6183333,24.2805333 Z" id="Path" fill="#363636" opacity="0.1"></path>
                <path d="M42.1513733,57.2 L48.8486267,57.2 C50.1104067,57.2 51.1333333,58.2032533 51.1333333,59.4407667 L51.1333333,83.2 L39.8666667,83.2 L39.8666667,59.4407667 C39.8666667,58.2032533 40.8895933,57.2 42.1513733,57.2 Z" id="Path" stroke="#363636" stroke-width="0.866666667" fill="#FFFFFF"></path>
                <line x1="47.6666667" y1="71.0666667" x2="47.6666667" y2="73.6666667" id="Path" stroke="#363636" stroke-width="0.866666667" stroke-linecap="round"></line>
                <path d="M27.8780667,38.91108 L33.1345733,34.32884 L33.1345733,29.8154133 C33.1345733,28.5644667 32.1204867,27.5502933 30.8694533,27.5502933 L30.1431867,27.5502933 C28.8921533,27.5502933 27.8780667,28.5644667 27.8780667,29.8154133 L27.8780667,38.91108 Z" id="Path" stroke="#363636" stroke-width="0.866666667" fill="#EEEEEE"></path>
                <path d="M48.1277333,20.6167 C50.3296733,18.6420867 53.6230933,18.5495267 55.92886,20.3651067 L56.1135467,20.5164267 L86.7212667,46.60734 C87.8141333,47.53892 87.945,49.1799533 87.0133333,50.2727333 C86.11746,51.32348 84.56578,51.4847667 83.4762933,50.6675 L83.3478533,50.5647133 L52.74022,24.4738 C52.4374933,24.2157067 52.0026,24.1994133 51.6834067,24.4216267 L51.5994267,24.4881 L22.5358467,50.5505867 C21.4668133,51.5092067 19.8230067,51.4197667 18.8643,50.3506467 C17.9425133,49.32278 17.9898333,47.7634733 18.94516,46.79272 L19.06424,46.6791867 L48.1277333,20.6167 Z" id="Path" stroke="#363636" stroke-width="0.866666667" fill="#FFFFFF" fill-rule="nonzero"></path>
                <path d="M33.18614,26.4205067 L27.73732,26.4205067 C27.0115733,26.4205067 26.4231933,27.0088 26.4231933,27.7346333 C26.4231933,28.46038 27.0115733,29.04876 27.73732,29.04876 L33.18614,29.04876 C33.9119733,29.04876 34.5003533,28.46038 34.5003533,27.7346333 C34.5003533,27.0088 33.9119733,26.4205067 33.18614,26.4205067 Z" id="Path" stroke="#363636" stroke-width="0.866666667" fill="url(#linearGradient-1)" fill-rule="nonzero"></path>
                <path d="M86.7438,22.97282 C88.1330667,22.97282 89.2597333,21.84624 89.2597333,20.4566267 C89.2597333,19.26288 88.4286,18.26396 87.3132,18.0059533 C87.2906667,15.48014 85.2359733,13.4394867 82.7047867,13.4394867 C80.9670333,13.4394867 79.4540933,14.4014 78.6688933,15.82178 C78.4299533,15.7183867 78.1665733,15.66084 77.88976,15.66084 C76.8923133,15.66084 76.0691533,16.4045267 75.94314,17.3675667 C74.64522,17.6249667 73.6666667,18.7694867 73.6666667,20.14298 C73.6666667,21.70584 74.9336467,22.97282 76.4965067,22.97282 C76.9318333,22.97282 86.4454933,22.97282 86.7438,22.97282 Z" id="Path" fill="#000000" fill-rule="nonzero" opacity="0.1"></path>
                <path d="M18.4994333,32.5061533 C19.6364133,32.5061533 20.5581133,31.5844533 20.5581133,30.4474733 C20.5581133,29.47074 19.8776933,28.6534733 18.9652667,28.4423533 C18.9465467,26.3757867 17.26582,24.7061533 15.1948333,24.7061533 C13.77298,24.7061533 12.5352067,25.4931733 11.8927467,26.6552867 C11.6972267,26.5707 11.4817733,26.52364 11.2552267,26.52364 C10.4391733,26.52364 9.76568667,27.1321267 9.66255333,27.9201 C8.600644,28.1306133 7.8,29.0671333 7.8,30.1908533 C7.8,31.4695333 8.83662,32.5061533 10.1153,32.5061533 C10.4715,32.5061533 18.25538,32.5061533 18.4994333,32.5061533 Z" id="Path" fill="#000000" fill-rule="nonzero" opacity="0.1"></path>
                <path d="M67.8478667,69.2729267 L64.4933467,69.2729267 C63.2423133,69.2729267 62.2282267,68.2587533 62.2282267,67.0078067 L62.2282267,59.71082 C62.2282267,58.4597867 63.2423133,57.4457 64.4933467,57.4457 L67.8478667,57.4457 C69.0989,57.4457 70.1129867,58.4597867 70.1129867,59.71082 L70.1129867,67.0078067 C70.1129867,68.2587533 69.0989,69.2729267 67.8478667,69.2729267 Z" id="Path" stroke="#363636" stroke-width="0.866666667" fill="url(#linearGradient-2)" fill-rule="nonzero"></path>
                <path d="M79.3,55.4666667 C84.3258,55.4666667 88.4,51.3924667 88.4,46.3666667 C88.4,41.3408667 84.3258,37.2666667 79.3,37.2666667 C74.2742,37.2666667 70.2,41.3408667 70.2,46.3666667 C70.2,51.3924667 74.2742,55.4666667 79.3,55.4666667 Z" id="Path" stroke="#363636" stroke-width="0.866666667" fill="#F8F8F8" fill-rule="nonzero"></path>
                <path d="M78.0307667,51.1333333 C77.9301467,51.1333333 77.84452,51.1031733 77.77406,51.0427667 C77.7136533,50.97222 77.6834933,50.88668 77.6834933,50.7859733 L77.6834933,45.3950467 C77.6834933,45.29434 77.7136533,45.2138267 77.77406,45.15342 C77.84452,45.0930133 77.9301467,45.0628533 78.0307667,45.0628533 L78.71032,45.0628533 C78.8110267,45.0628533 78.89154,45.0930133 78.9519467,45.15342 C79.0224067,45.2138267 79.05768,45.29434 79.05768,45.3950467 L79.05768,49.9252867 L81.3076333,49.9252867 C82.20368,49.9252867 82.8529867,49.7037667 83.25564,49.2608133 C83.65838,48.8078067 83.8597067,48.1786067 83.8597067,47.3732133 L83.8597067,42.8580533 C83.8597067,42.7574333 83.8898667,42.67692 83.9502733,42.6165133 C84.02082,42.5460533 84.10636,42.51078 84.2070667,42.51078 L84.9017,42.51078 C85.00232,42.51078 85.0828333,42.5460533 85.14324,42.6165133 C85.2137867,42.67692 85.2489733,42.7574333 85.2489733,42.8580533 L85.2489733,47.41854 C85.2489733,48.2339867 85.1080533,48.9185667 84.8261267,49.47228 C84.5442867,50.0259067 84.1164133,50.4437267 83.5425933,50.7256533 C82.9788267,50.99744 82.25906,51.1333333 81.3832067,51.1333333 L78.0307667,51.1333333 Z M75.08618,51.1333333 C74.9854733,51.1333333 74.90496,51.1031733 74.8445533,51.0427667 C74.7841467,50.97222 74.7539,50.88668 74.7539,50.7859733 L74.7539,42.8580533 C74.7539,42.7574333 74.7841467,42.67692 74.8445533,42.6165133 C74.90496,42.5460533 74.9854733,42.51078 75.08618,42.51078 L78.4536133,42.51078 C79.3294667,42.51078 80.0492333,42.6517 80.613,42.9336267 C81.1869067,43.2054133 81.6146933,43.6182067 81.89662,44.1718333 C82.17846,44.7154933 82.3194667,45.4000733 82.3194667,46.2255733 L82.3194667,48.2339867 C82.3194667,48.3346933 82.2841933,48.4202333 82.2137333,48.4906933 C82.1533267,48.5511 82.0728133,48.58126 81.9721067,48.58126 L81.2774733,48.58126 C81.1767667,48.58126 81.0912267,48.5511 81.0207667,48.4906933 C80.96036,48.4202333 80.9301133,48.3346933 80.9301133,48.2339867 L80.9301133,46.2709 C80.9301133,45.4655067 80.7287867,44.8413333 80.3261333,44.39838 C79.9233933,43.9453733 79.2740867,43.7188267 78.3781267,43.7188267 L76.1280867,43.7188267 L76.1280867,50.7859733 C76.1280867,50.88668 76.0929,50.97222 76.0223533,51.0427667 C75.9619467,51.1031733 75.8814333,51.1333333 75.7808133,51.1333333 L75.08618,51.1333333 Z" id="Shape" fill="#363636" fill-rule="nonzero"></path>
            </g>
        </g>
    </g>
</svg>
