<?xml version="1.0" encoding="utf-8"?>
<!-- Generator: Adobe Illustrator 26.0.2, SVG Export Plug-In . SVG Version: 6.00 Build 0)  -->
<svg version="1.1" id="Layer_1" xmlns="http://www.w3.org/2000/svg" xmlns:xlink="http://www.w3.org/1999/xlink" x="0px" y="0px"
	 viewBox="0 0 634.26 642.48" style="enable-background:new 0 0 634.26 642.48;" xml:space="preserve">
<style type="text/css">
	.st0{fill-rule:evenodd;clip-rule:evenodd;fill:#FF7100;}
	.st1{fill-rule:evenodd;clip-rule:evenodd;fill:#363636;stroke:#363636;stroke-width:5;stroke-miterlimit:10;}
	.st2{fill:#FF7100;}
	.st3{fill:#F6DA35;}
	.st4{fill:#363636;}
	.st5{fill-rule:evenodd;clip-rule:evenodd;fill:#F6DA35;}
	.st6{fill-rule:evenodd;clip-rule:evenodd;fill:#363636;stroke:#363636;stroke-width:3;stroke-miterlimit:10;}
	.st7{fill-rule:evenodd;clip-rule:evenodd;fill:#363636;stroke:#363636;stroke-width:4;stroke-miterlimit:10;}
</style>
<polygon class="st0" points="243.06,151.72 440.41,151.72 444.49,171.13 343.78,257.3 237.98,172.68 "/>
<polygon class="st0" points="417.17,428.09 260.81,428.09 257.58,414.74 337.38,355.45 421.2,413.67 "/>
<path class="st1" d="M416.98,421.05l-75.63-62.96l-74.97,62.96H416.98L416.98,421.05z M299.97,282l-79.26-65.49
	c-3.79-3.13-6.71-6.84-8.67-11.02c-1.97-4.21-3.01-8.8-3.01-13.73v-12.01v-50.12h-35.17c-2.94,0-5.36-2.4-5.36-5.35V67.03
	c0-2.97,2.42-5.37,5.36-5.37h335.73c2.95,0,5.37,2.4,5.37,5.37v57.26c0,2.95-2.42,5.35-5.37,5.35h-35.18v50.12v12.01
	c0,4.93-1.01,9.52-2.99,13.73c-1.95,4.19-4.88,7.89-8.67,11.02L383.5,282c-2.59,2.13-4.52,4.61-5.83,7.35
	c-1.28,2.73-1.94,5.83-1.94,9.15c0,3.36,0.65,6.44,1.94,9.17c1.31,2.73,3.24,5.22,5.83,7.34l79.25,65.48
	c3.79,3.12,6.72,6.85,8.67,11.03c1.98,4.21,2.99,8.81,2.99,13.72v12.02v50.18h35.18c2.95,0,5.37,2.4,5.37,5.35v57.28
	c0,2.95-2.42,5.35-5.37,5.35H173.87c-2.94,0-5.36-2.4-5.36-5.35v-57.28c0-2.95,2.42-5.35,5.36-5.35h35.17v-50.18v-12.02
	c0-4.91,1.03-9.51,3.01-13.7v-0.02l0,0c1.96-4.19,4.88-7.91,8.67-11.03l79.26-65.48c2.56-2.12,4.52-4.61,5.83-7.34
	c1.28-2.74,1.94-5.81,1.94-9.17c0-3.33-0.65-6.4-1.94-9.15C304.49,286.61,302.53,284.13,299.97,282L299.97,282z M227.53,208.29
	c-2.59-2.15-4.55-4.61-5.83-7.37c-1.28-2.72-1.96-5.81-1.96-9.16v-12.01v-50.12H463.7v50.12v12.01c0,3.35-0.65,6.44-1.94,9.16
	c-1.31,2.76-3.24,5.22-5.83,7.37l-79.25,65.46c-3.79,3.14-6.72,6.84-8.67,11.03c-1.98,4.21-2.99,8.81-2.99,13.72
	c0,4.9,1.01,9.53,2.99,13.72c1.95,4.19,4.88,7.89,8.67,11.02l79.27,65.49c2.57,2.12,4.5,4.61,5.81,7.36
	c1.28,2.72,1.94,5.81,1.94,9.15v12.02v50.12H219.74v-50.12v-12.02c0-3.35,0.68-6.44,1.94-9.15h0.02c1.28-2.76,3.24-5.24,5.83-7.36
	l79.25-65.49c3.79-3.13,6.69-6.84,8.67-11.02c1.96-4.19,2.98-8.8,2.98-13.72c0-4.91-1.02-9.51-2.98-13.7
	c-1.98-4.21-4.88-7.91-8.67-11.02L227.53,208.29L227.53,208.29z M341.73,251.94l98.68-81.5v-14.18H243.06v14.18L341.73,251.94
	L341.73,251.94z M449.16,177.07c1.29-1.05,1.94-2.58,1.94-4.12h0.02v-22.06c0-2.95-2.4-5.35-5.37-5.35H237.7
	c-2.95,0-5.35,2.4-5.35,5.35v22.06c0,1.77,0.84,3.33,2.15,4.29l103.83,85.77c2,1.66,4.88,1.6,6.82,0l0.01-0.02l0.02-0.02
	L449.16,177.07L449.16,177.07z M504.25,478.15H179.21v46.59h325.04V478.15L504.25,478.15z M504.25,72.35H179.21v46.57h35.19h254.67
	h35.18V72.35L504.25,72.35z M344.74,347.04L434.76,422c1.41,0.94,2.34,2.57,2.34,4.42c0,2.95-2.4,5.35-5.37,5.35H251.71v-0.02
	c-1.54,0-3.03-0.63-4.11-1.92c-1.87-2.25-1.58-5.62,0.68-7.51l89.64-75.27v0.02C339.86,345.42,342.74,345.36,344.74,347.04z"/>
<circle class="st5" cx="190.44" cy="467.4" r="118.93"/>
<path class="st6" d="M152.37,523.69c-1.75,0-3.15-1.42-3.15-3.15c0-1.74,1.4-3.16,3.15-3.16h60.36c3.47,0,6.62-1.41,8.91-3.69
	c2.28-2.29,3.7-5.44,3.7-8.91v-21.61c0-3.48-1.41-6.63-3.7-8.91v-0.03c-2.29-2.27-5.44-3.67-8.91-3.67h-44.6
	c-5.2,0-9.93-2.13-13.35-5.55l-0.01-0.01l-0.01-0.01l-0.03-0.03c-3.41-3.43-5.52-8.14-5.52-13.31v-21.62
	c0-5.22,2.12-9.94,5.54-13.36c3.43-3.42,8.16-5.55,13.37-5.55h54.94c1.74,0,3.15,1.41,3.15,3.15c0,1.75-1.41,3.16-3.15,3.16h-54.94
	c-3.47,0-6.63,1.41-8.91,3.7c-2.28,2.29-3.7,5.44-3.7,8.91v21.62c0,3.47,1.41,6.62,3.69,8.9l0.01,0.01
	c2.28,2.28,5.43,3.69,8.91,3.69h44.6c5.2,0,9.93,2.12,13.35,5.54l0.01,0.01c3.42,3.44,5.55,8.16,5.55,13.36v21.61
	c0,5.2-2.13,9.94-5.55,13.37c-3.42,3.42-8.16,5.54-13.36,5.54H152.37z"/>
<path class="st6" d="M187.28,389.68c0-1.74,1.43-3.16,3.16-3.16s3.15,1.42,3.15,3.16v155.45c0,1.74-1.41,3.14-3.15,3.14
	s-3.16-1.4-3.16-3.14V389.68z"/>
<path class="st7" d="M190.44,348.48c-32.85,0-62.58,13.31-84.1,34.83C84.81,404.83,71.5,434.56,71.5,467.4
	c0,32.84,13.32,62.58,34.83,84.1c21.53,21.52,51.26,34.83,84.1,34.83c32.84,0,62.57-13.3,84.09-34.83
	c21.52-21.52,34.83-51.26,34.83-84.1c0-32.84-13.31-62.57-34.83-84.09C253.01,361.79,223.27,348.48,190.44,348.48L190.44,348.48z
	 M101.88,378.85c22.66-22.66,53.97-36.68,88.56-36.68c34.57,0,65.88,14.02,88.55,36.68c22.66,22.66,36.68,53.97,36.68,88.55
	c0,34.57-14.02,65.9-36.68,88.54c-22.67,22.67-53.98,36.69-88.55,36.69c-34.59,0-65.9-14.02-88.56-36.69
	c-22.66-22.65-36.69-53.97-36.69-88.54C65.19,432.82,79.22,401.5,101.88,378.85z"/>
<path class="st7" d="M190.44,557.25c12.18,0,23.8-2.43,34.37-6.8c10.97-4.55,20.86-11.22,29.15-19.51
	c8.3-8.29,14.98-18.18,19.51-29.17c4.38-10.56,6.79-22.18,6.79-34.36c0-12.2-2.41-23.8-6.79-34.37
	c-4.53-10.97-11.22-20.86-19.51-29.15c-8.29-8.3-18.18-14.97-29.15-19.51c-10.59-4.39-22.2-6.8-34.37-6.8
	c-12.19,0-23.81,2.42-34.38,6.8c-10.97,4.54-20.87,11.22-29.17,19.51c-8.28,8.29-14.96,18.18-19.51,29.15
	c-4.38,10.57-6.78,22.18-6.78,34.37c0,12.19,2.41,23.8,6.78,34.38c4.55,10.97,11.23,20.86,19.51,29.15
	c8.3,8.29,18.2,14.96,29.17,19.51C166.62,554.81,178.25,557.25,190.44,557.25L190.44,557.25z M227.19,556.25
	c-11.34,4.7-23.76,7.29-36.75,7.29c-13,0-25.42-2.59-36.77-7.29c-11.78-4.87-22.37-12.02-31.22-20.86
	c-8.86-8.85-15.99-19.45-20.88-31.22c-4.68-11.34-7.29-23.76-7.29-36.77c0-13,2.61-25.42,7.29-36.75
	c4.88-11.79,12.01-22.39,20.88-31.24c8.85-8.85,19.45-15.99,31.22-20.87c11.34-4.69,23.76-7.28,36.77-7.28
	c12.99,0,25.41,2.59,36.75,7.28c11.79,4.88,22.38,12.02,31.24,20.87c8.84,8.85,15.98,19.45,20.86,31.24
	c4.7,11.33,7.29,23.75,7.29,36.75c0,13.01-2.59,25.42-7.29,36.77c-4.88,11.78-12.02,22.37-20.86,31.22
	C249.56,544.23,238.98,551.38,227.19,556.25z"/>
</svg>
