<?xml version="1.0" encoding="UTF-8"?>
<svg width="81px" height="40px" viewBox="0 0 81 40" version="1.1" xmlns="http://www.w3.org/2000/svg" xmlns:xlink="http://www.w3.org/1999/xlink">
    <!-- Generator: Sketch 52.6 (67491) - http://www.bohemiancoding.com/sketch -->
    <title>logo_orange</title>
    <desc>Created with Sketch.</desc>
    <defs>
        <path d="M5.52401978,12.0573684 C-1.47562699,22.0982456 -1.75256093,33.744386 4.90657012,38.0678947 C10.0337337,41.3970175 17.7772872,39.4177193 24.2629813,33.747193 C25.0649947,35.534386 26.2734016,37.017193 27.8915578,38.0678947 C32.839456,41.2803509 40.2232427,39.55 46.5623455,34.3292982 C47.3557047,35.8573684 48.4706817,37.1336842 49.9097492,38.0678947 C56.5687036,42.3914035 67.6402331,37.7617544 74.6400565,27.7196491 C81.6398799,17.6777193 81.9168138,6.03263158 75.2576828,1.70912281 C70.3117273,-1.50508772 62.926881,0.226842105 56.5867185,5.44824561 C55.7935359,3.92 54.6785588,2.64350877 53.2398446,1.70912281 L53.2371953,1.70912281 C48.1110915,-1.62157895 40.3680678,0.358947368 33.8825503,6.02982456 C32.510597,3.43140351 30.25574,1.70912281 30.25574,1.70912281 C28.5623455,0.609122807 26.5844225,0.0884210526 24.4600848,0.0885964912 C18.2294242,0.089122807 10.7440834,4.56964912 5.52401978,12.0573684" id="path-1"></path>
        <linearGradient x1="9.04413381%" y1="107.542852%" x2="90.9559146%" y2="-7.54056187%" id="linearGradient-3">
            <stop stop-color="#FF5400" offset="0%"></stop>
            <stop stop-color="#F6DA34" offset="100%"></stop>
        </linearGradient>
    </defs>
    <g id="Page-1" stroke="none" stroke-width="1" fill="none" fill-rule="evenodd">
        <g id="logo_orange">
            <g id="New-logo">
                <g id="LogoPositive">
                    <mask id="mask-2" fill="white">
                        <use xlink:href="#path-1"></use>
                    </mask>
                    <g id="Clip-2"></g>
                    <path d="M5.52401978,12.0573684 C-1.47562699,22.0982456 -1.75256093,33.744386 4.90657012,38.0678947 C10.0337337,41.3970175 17.7772872,39.4177193 24.2629813,33.747193 C25.0649947,35.534386 26.2734016,37.017193 27.8915578,38.0678947 C32.839456,41.2803509 40.2232427,39.55 46.5623455,34.3292982 C47.3557047,35.8573684 48.4706817,37.1336842 49.9097492,38.0678947 C56.5687036,42.3914035 67.6402331,37.7617544 74.6400565,27.7196491 C81.6398799,17.6777193 81.9168138,6.03263158 75.2576828,1.70912281 C70.3117273,-1.50508772 62.926881,0.226842105 56.5867185,5.44824561 C55.7935359,3.92 54.6785588,2.64350877 53.2398446,1.70912281 L53.2371953,1.70912281 C48.1110915,-1.62157895 40.3680678,0.358947368 33.8825503,6.02982456 C32.510597,3.43140351 30.25574,1.70912281 30.25574,1.70912281 C28.5623455,0.609122807 26.5844225,0.0884210526 24.4600848,0.0885964912 C18.2294242,0.089122807 10.7440834,4.56964912 5.52401978,12.0573684" id="Fill-1" fill="url(#linearGradient-3)" mask="url(#mask-2)"></path>
                    <path d="M25.5523137,14.0617895 C24.7578947,13.6461754 23.7752031,13.9486316 23.3566231,14.7374035 L19.8795832,21.2919649 L16.3737549,14.7330175 C15.9528788,13.9454737 14.9689509,13.6461754 14.1761215,14.0642456 C13.3834687,14.4823158 13.0819852,15.4596842 13.5028612,16.2472281 L18.0463087,24.7475789 L17.4728365,25.828807 C16.9037796,26.9093333 15.7868598,27.6068772 14.5579654,27.6491579 C13.6609325,27.6800351 12.9588838,28.4274035 12.9899682,29.3186316 C13.0203462,30.1907368 13.7416461,30.8770526 14.6132462,30.8770526 C14.6323207,30.8770526 14.6513953,30.8767018 14.6706464,30.8761754 C17.0655599,30.7937193 19.2428824,29.433193 20.3507948,27.3298596 L26.232462,16.2428421 C26.6508654,15.4540702 26.3463794,14.4775789 25.5523137,14.0617895" id="Fill-4" fill="#FFFFFF" mask="url(#mask-2)"></path>
                    <path d="M57.3781398,27.0175439 C56.6928973,27.0175439 56.0682382,26.6159541 55.7872272,25.9945109 C55.506045,25.3730677 55.6181414,24.6420382 56.072859,24.1320532 L62.8498115,16.532307 L62.8554591,16.5239689 C63.1222655,16.1276542 63.2632845,15.6642945 63.2632845,15.1834077 C63.2632845,13.8513548 62.1734682,12.7675729 60.8336172,12.7675729 C60.1846563,12.7675729 59.574544,13.0189069 59.115719,13.4752898 C58.7862755,13.8028578 58.3481584,13.9832328 57.8821456,13.9832328 C57.4161328,13.9832328 56.9780157,13.8028578 56.6484011,13.4752898 C56.3191287,13.1477219 56.1373786,12.7120991 56.1373786,12.2485692 C56.1373786,11.7852094 56.3191287,11.3495866 56.6484011,11.0220187 C57.7662842,9.91049986 59.2528018,9.29824561 60.8336172,9.29824561 C64.0974183,9.29824561 66.7526475,11.9383581 66.7526475,15.1834077 C66.7526475,16.4278255 66.3663856,17.6177905 65.63562,18.6246578 C65.6020767,18.6709427 65.5652817,18.7167171 65.5262619,18.7606197 L61.256674,23.5482166 L65.5461141,23.5482166 C66.5080891,23.5482166 67.29071,24.3263818 67.29071,25.2828802 C67.29071,26.2393786 66.5080891,27.0175439 65.5461141,27.0175439 L57.3781398,27.0175439 Z" id="Fill-6" fill="#FFFFFF" mask="url(#mask-2)"></path>
                    <path d="M33.0180502,23.8949123 C31.1333804,23.8949123 29.6,22.3717544 29.6,20.4998246 C29.6,18.6277193 31.1333804,17.1045614 33.0180502,17.1045614 C34.9027199,17.1045614 36.4361003,18.6277193 36.4361003,20.4998246 C36.4361003,22.3717544 34.9027199,23.8949123 33.0180502,23.8949123 Z M39.6865419,20.4998246 C39.6865419,16.847193 36.6950194,13.8757895 33.0180502,13.8757895 C29.3410809,13.8757895 26.3495585,16.847193 26.3495585,20.4998246 C26.3495585,24.1522807 29.3410809,27.1238596 33.0180502,27.1238596 C34.3098199,27.1238596 35.516284,26.7559649 36.5388909,26.1215789 C36.7686683,26.7363158 37.362628,27.1750877 38.0613211,27.1750877 C38.9588838,27.1750877 39.6865419,26.4522807 39.6865419,25.5607018 L39.6865419,20.4998246 Z" id="Fill-8" fill="#FFFFFF" mask="url(#mask-2)"></path>
                    <path d="M47.5580007,23.8949123 C45.673331,23.8949123 44.1399505,22.3717544 44.1399505,20.4998246 C44.1399505,18.6277193 45.673331,17.1045614 47.5580007,17.1045614 C49.4424938,17.1045614 50.9758742,18.6277193 50.9758742,20.4998246 C50.9758742,22.3717544 49.4424938,23.8949123 47.5580007,23.8949123 M52.6012716,8.90666667 C51.7035323,8.90666667 50.9758742,9.62947368 50.9758742,10.5212281 L50.9758742,14.8147368 C49.9756976,14.2191228 48.8066761,13.8757895 47.5580007,13.8757895 C43.8808548,13.8757895 40.8893324,16.847193 40.8893324,20.4998246 C40.8893324,24.1522807 43.8808548,27.1238596 47.5580007,27.1238596 C48.8497704,27.1238596 50.0562345,26.7559649 51.0788414,26.1215789 C51.3084422,26.7363158 51.9025786,27.1750877 52.6012716,27.1750877 C53.4988343,27.1750877 54.2264924,26.4522807 54.2264924,25.5607018 L54.2264924,10.5212281 C54.2264924,9.62947368 53.4988343,8.90666667 52.6012716,8.90666667" id="Fill-10" fill="#FFFFFF" mask="url(#mask-2)"></path>
                </g>
            </g>
        </g>
    </g>
</svg>