<?xml version="1.0" encoding="utf-8"?>
<!-- Generator: Adobe Illustrator 26.0.2, SVG Export Plug-In . SVG Version: 6.00 Build 0)  -->
<svg version="1.1" id="Layer_1" xmlns="http://www.w3.org/2000/svg" xmlns:xlink="http://www.w3.org/1999/xlink" x="0px" y="0px"
	 viewBox="0 0 634.26 642.48" style="enable-background:new 0 0 634.26 642.48;" xml:space="preserve">
<style type="text/css">
	.st0{fill-rule:evenodd;clip-rule:evenodd;fill:#FF7100;}
	.st1{fill-rule:evenodd;clip-rule:evenodd;fill:#363636;stroke:#363636;stroke-width:5;stroke-miterlimit:10;}
	.st2{fill:#FF7100;}
	.st3{fill:#F6DA35;}
	.st4{fill:#363636;}
	.st5{fill-rule:evenodd;clip-rule:evenodd;fill:#F6DA35;}
	.st6{fill-rule:evenodd;clip-rule:evenodd;fill:#363636;stroke:#363636;stroke-width:3;stroke-miterlimit:10;}
	.st7{fill-rule:evenodd;clip-rule:evenodd;fill:#363636;stroke:#363636;stroke-width:4;stroke-miterlimit:10;}
</style>
<g>
	<polygon class="st2" points="154.73,70.94 154.73,493.24 339.64,403.93 339.64,402.95 339.23,402.95 339.23,161.54 339.58,161.54 
		339.58,160.28 	"/>
	<path class="st3" d="M358.19,532.73c-4.21,21.31,5.2,32.7,21.29,37.01l2.18,0.58c16.07,4.31,28.92-2.62,36.94-21.4l53.75-135.08
		c0.92-3.47,1.39-6.96,1.43-10.39v-0.49h-88.31v0.48L358.19,532.73z"/>
	<path class="st4" d="M339.23,412.23h139.17c32.27,0,58.53-26.1,58.53-58.18V210.14c0-31.92-26.26-57.88-58.53-57.88H339.23
		c-5.12,0-9.28,4.15-9.28,9.28c0,5.12,4.15,9.28,9.28,9.28h139.17c22.04,0,39.98,17.64,39.98,39.33v143.91
		c0,21.85-17.93,39.63-39.98,39.63H339.23c-5.12,0-9.28,4.15-9.28,9.28C329.95,408.08,334.1,412.23,339.23,412.23z"/>
	<path class="st4" d="M154.73,502.52c1.38,0,2.76-0.31,4.03-0.92l184.91-89.31c4.61-2.23,6.55-7.77,4.32-12.39
		c-2.23-4.61-7.77-6.55-12.39-4.32L164,478.46V85.72l171.54,82.91c4.61,2.23,10.16,0.3,12.39-4.31c2.23-4.61,0.3-10.16-4.31-12.39
		L158.76,62.59c-2.88-1.39-6.26-1.2-8.97,0.49c-2.7,1.7-4.35,4.67-4.35,7.86v422.3c0,3.19,1.64,6.16,4.35,7.86
		C151.3,502.04,153.01,502.52,154.73,502.52z"/>
	<path class="st4" d="M339.23,412.23c5.12,0,9.28-4.15,9.28-9.28V161.54c0-5.12-4.15-9.28-9.28-9.28c-5.12,0-9.28,4.15-9.28,9.28
		v241.42C329.95,408.08,334.1,412.23,339.23,412.23z"/>
	<path class="st4" d="M390.41,580.82c15.81,0,28.86-9.87,36.71-28.26c0.03-0.07,0.06-0.14,0.09-0.21l53.75-135.08
		c0.14-0.34,0.25-0.69,0.35-1.05c1.11-4.17,1.69-8.43,1.74-12.67c0.06-5.12-4.05-9.32-9.17-9.38c-5.13-0.08-9.32,4.05-9.38,9.17
		c-0.03,2.53-0.36,5.09-0.99,7.62l-53.49,134.42c-7.91,18.44-18.6,17.95-25.96,15.98l-2.2-0.58c-12.95-3.47-17.46-11.55-14.58-26.19
		l27.26-129.24c1.06-5.01-2.15-9.93-7.16-10.99c-5-1.06-9.93,2.15-10.99,7.16l-27.27,129.3c-0.01,0.04-0.02,0.08-0.02,0.12
		c-4.8,24.31,5.4,41.72,27.99,47.77l2.2,0.58C383.11,580.31,386.83,580.82,390.41,580.82z"/>
	<path class="st4" d="M149.95,351.47c5.12,0,9.28-4.15,9.28-9.28c0-5.12-4.15-9.28-9.28-9.28c-27.99,0-50.76-22.77-50.76-50.76
		s22.77-50.76,50.76-50.76c5.12,0,9.28-4.15,9.28-9.28c0-5.12-4.15-9.28-9.28-9.28c-38.22,0-69.32,31.09-69.32,69.32
		C80.63,320.38,111.73,351.47,149.95,351.47z"/>
	<path class="st4" d="M431.47,210.07h53.98c5.12,0,9.28-4.15,9.28-9.28c0-5.12-4.15-9.28-9.28-9.28h-53.98
		c-5.12,0-9.28,4.15-9.28,9.28C422.2,205.92,426.35,210.07,431.47,210.07z"/>
</g>
</svg>
