<svg width="35" height="26" viewBox="0 0 35 26" fill="none" xmlns="http://www.w3.org/2000/svg">
<path d="M5 12H1" stroke="#FF7100" stroke-width="1.15385" stroke-linecap="round"/>
<path d="M5.46215 17L1.99805 19" stroke="#FF7100" stroke-width="1.15385" stroke-linecap="round"/>
<path d="M5.46215 7L1.99805 5" stroke="#FF7100" stroke-width="1.15385" stroke-linecap="round"/>
<path fill-rule="evenodd" clip-rule="evenodd" d="M23 7V17H29.5263C29.9333 17 30.3017 16.8219 30.5684 16.534C30.8351 16.2461 31 15.8484 31 15.4091V8.59091C31 8.15159 30.8351 7.75386 30.5684 7.46597C30.3017 7.17807 29.9333 7 29.5263 7H23Z" stroke="#FF7100" stroke-width="1.15385"/>
<path d="M25 17H29V23C29 24.1046 28.1046 25 27 25V25C25.8954 25 25 24.1046 25 23V17Z" stroke="#FF7100" stroke-width="1.15385"/>
<path d="M9.94402 1.047C10.2623 0.960222 10.6147 0.991149 10.9258 1.16034L23.0019 7.44065L23.002 17.1016L10.9046 22.8512C10.7167 22.9489 10.5069 23 10.2938 23C9.93705 23 9.61409 22.8598 9.38032 22.6332C9.14655 22.4066 9.00196 22.0935 9.00196 21.7477V2.25257C9.00196 2.03799 9.05884 1.82701 9.16713 1.63986C9.34166 1.33825 9.62576 1.13377 9.94402 1.047Z" stroke="#FF7100" stroke-width="1.15385"/>
<path d="M31 9H32.4615C33.3112 9 34 9.68879 34 10.5385V13.4615C34 14.3112 33.3112 15 32.4615 15H31V9Z" stroke="#FF7100" stroke-width="1.15385"/>
</svg>
