<svg width="104px" height="104px" viewBox="0 0 104 104" version="1.1" xmlns="http://www.w3.org/2000/svg" xmlns:xlink="http://www.w3.org/1999/xlink">
    <title>Roommate</title>
    <defs>
        <linearGradient x1="49.9997748%" y1="100%" x2="51.6552509%" y2="-76.0857653%" id="linearGradient-1">
            <stop stop-color="#FF7100" offset="0%"></stop>
            <stop stop-color="#F6DA35" offset="100%"></stop>
        </linearGradient>
        <linearGradient x1="41.2111142%" y1="100.000079%" x2="210.583535%" y2="12.1823599%" id="linearGradient-2">
            <stop stop-color="#FF7100" offset="0%"></stop>
            <stop stop-color="#F6DA35" offset="100%"></stop>
        </linearGradient>
    </defs>
    <g id="ILLU-RE" stroke="none" stroke-width="1" fill="none" fill-rule="evenodd">
        <g id="re-ad-publish" transform="translate(-641.000000, -255.000000)">
            <g id="Roommate" transform="translate(641.000000, 255.000000)">
                <rect id="Rectangle" fill-opacity="0.01" fill="#FFFFFF" fill-rule="nonzero" x="0" y="0" width="104" height="104"></rect>
                <path d="M58.8560267,33.9976567 C54.48976,33.99058 50.9877333,35.2475067 48.34986,37.76838 C39.94328,37.0579733 34.8791733,39.4185133 33.1576267,44.8500867 C31.4359933,50.2815733 32.16538,54.63016 35.3457867,57.89602 L32.4296267,61.8726333 L33.1576267,65.5512867 L29.9901333,66.2909867 L29.9901333,68.3176867 L28.5444467,68.8356933 L29.4477733,71.92172 L25.6951067,72.9256667 L23.8654867,75.2638467 L25.6951067,81.0444267 L33.1576267,79.7465933 L43.3753667,63.3249933 C45.2533467,63.7110067 46.91154,63.9039267 48.34986,63.9039267 C49.7880933,63.9039267 51.3241733,63.3808933 52.9580133,62.33474 L52.9580133,78.14638 L58.1995267,83.1242533 L63.2878133,79.05326 L63.2878133,76.5898467 L60.36784,73.6714333 L63.2878133,71.4466133 L61.7343133,69.8971 L63.2878133,68.3176867 L60.36784,66.2909867 L62.74164,63.9039267 L62.74164,58.5611 C68.7426133,56.12776 71.7431,52.0539067 71.7431,46.3397133 C71.7431,37.76838 65.4054267,34.0088667 58.8560267,33.9976567 Z" id="Path" fill="#EEEEEE" fill-rule="nonzero"></path>
                <path d="M46.1590133,41.4758067 C44.50316,49.21748 45.4518133,55.42784 53.1303067,58.56292 C53.59744,58.7536733 53.41934,60.2558667 53.4884133,61.3093867 C53.3152533,61.2433467 53.13828,61.1734933 52.9580133,61.1 C42.76922,56.9437267 41.0513133,49.1175533 47.8042933,37.6215667 L48.66264,37.622 C47.1926,39.2606933 46.358,40.5452667 46.1590133,41.4758067 Z" id="Path" fill-opacity="0.1" fill="#363636"></path>
                <path d="M33.1576267,44.8500867 C34.70818,39.9580133 38.9702733,37.5571733 45.9439933,37.6476533 C45.77014,37.8584267 45.6041733,38.07076 45.44514,38.2848267 C40.4837333,39.0960267 37.2540133,41.8621667 35.7576267,46.58342 C34.0359933,52.0149067 34.95856,55.90676 38.52524,58.25898 L35.0296267,63.6060533 L35.7576267,67.28462 L32.5901333,68.02432 L32.5901333,70.05102 L31.1444467,70.5690267 L32.0477733,73.6550533 L28.2951067,74.6590867 L26.4654867,76.99718 L27.6389533,80.70634 L25.6951067,81.0444267 L23.8654867,75.2638467 L25.6951067,72.9257533 L29.4477733,71.92172 L28.5444467,68.8356933 L29.9901333,68.3176867 L29.9901333,66.2909867 L33.1576267,65.5512867 L32.4296267,61.87272 L35.3457867,57.89602 C32.16538,54.6302467 31.4359933,50.2815733 33.1576267,44.8500867 Z M52.9577533,74.8104067 L53.3490533,75.1034267 L52.9577533,75.6640733 L52.9577533,74.8104067 Z" id="Shape" fill-opacity="0.1" fill="#363636" fill-rule="nonzero"></path>
                <path d="M55.90052,60.6281 C56.13504,60.6281 56.3296067,60.7992667 56.36618,61.0234733 L56.37242,61.1 L56.37242,81.0333333 C56.37242,81.29394 56.1611267,81.5052333 55.90052,81.5052333 C55.6659133,81.5052333 55.4713467,80.9007333 55.4347733,81.10986 L55.42862,80.6 L55.42862,61.1 C55.42862,60.8393933 55.6398267,60.6281 55.90052,60.6281 Z" id="Path" fill="url(#linearGradient-1)" fill-rule="nonzero"></path>
                <path d="M38.12536,65.3880933 C38.26342,65.1670933 38.5545333,65.09984 38.77562,65.2379867 C38.9720933,65.3607067 39.0469733,65.6044133 38.9642067,65.81224 L38.9257267,65.8882467 L29.7404467,80.58778 C29.6023,80.80878 29.3111867,80.8759467 29.0901867,80.7378867 C28.8937133,80.61508 28.8187467,80.37146 28.9016,80.1635467 L28.94008,80.0876267 L38.12536,65.3880933 Z" id="Path" fill="url(#linearGradient-2)" fill-rule="nonzero"></path>
                <path d="M58.8560267,33.9976567 C54.48976,33.99058 50.9877333,35.2475067 48.34986,37.76838 C39.94328,37.0579733 34.8791733,39.4185133 33.1576267,44.8500867 C31.4359933,50.2815733 32.16538,54.63016 35.3457867,57.89602 L32.4296267,61.8726333 L33.1576267,65.5512867 L29.9901333,66.2909867 L29.9901333,68.3176867 L28.5444467,68.8356933 L29.4477733,71.92172 L25.6951067,72.9256667 L23.8654867,75.2638467 L25.6951067,81.0444267 L33.1576267,79.7465933 L43.3753667,63.3249933 C45.2533467,63.7110067 46.91154,63.9039267 48.34986,63.9039267 C49.7880933,63.9039267 51.3241733,63.3808933 52.9580133,62.33474 L52.9580133,78.14638 L58.1995267,83.1242533 L63.2878133,79.05326 L63.2878133,76.5898467 L60.36784,73.6714333 L63.2878133,71.4466133 L61.7343133,69.8971 L63.2878133,68.3176867 L60.36784,66.2909867 L62.74164,63.9039267 L62.74164,58.5611 C68.7426133,56.12776 71.7431,52.0539067 71.7431,46.3397133 C71.7431,37.76838 65.4054267,34.0088667 58.8560267,33.9976567 Z M52.9581,62.33474 L52.9581,58.5611" id="Combined-Shape" stroke="#363636" stroke-width="0.866666667" stroke-linejoin="round"></path>
                <path d="M58.4366467,43.6486267 C60.1087067,43.6486267 61.46426,42.2994 61.46426,40.6350533 C61.46426,38.9707067 60.1087067,37.6215667 58.4366467,37.6215667 C56.7645867,37.6215667 55.40912,38.9707067 55.40912,40.6350533 C55.40912,42.2994 56.7645867,43.6486267 58.4366467,43.6486267 Z" id="Path" stroke="#363636" stroke-width="0.87" fill="#FFFFFF" fill-rule="nonzero"></path>
                <path d="M58.2490133,40.60368 C58.2490133,21.64448 40.57404,25.1881067 41.54826,37.87862" id="Path" stroke="#363636" stroke-width="0.87" stroke-linecap="round" stroke-linejoin="round"></path>
                <path d="M52.95784,58.5611 C48.9089467,56.4356 46.5113133,53.7917467 45.76494,50.6293667 C44.64538,45.8859267 45.76494,40.0551667 48.5588133,37.6215667" id="Path" stroke="#363636" stroke-width="0.87" stroke-linecap="round"></path>
                <path d="M66.0156467,22.3847867 C66.0156467,22.1454133 65.8216,21.9514533 65.5823133,21.9514533 C65.34294,21.9514533 65.14898,22.1454133 65.14898,22.3847867 L65.14898,26.52 C65.14898,26.7592867 65.34294,26.9533333 65.5823133,26.9533333 C65.8216,26.9533333 66.0156467,26.7592867 66.0156467,26.52 L66.0156467,22.3847867 Z" id="Path" fill="#D7D7D7" fill-rule="nonzero"></path>
                <path d="M67.64992,24.1397867 C67.64992,24.3124267 67.5099533,24.4523933 67.3373133,24.4523933 L62.9606467,24.4523933 C62.7880067,24.4523933 62.64804,24.3124267 62.64804,24.1397867 C62.64804,23.9671467 62.7880067,23.82718 62.9606467,23.82718 L67.3373133,23.82718 C67.5099533,23.82718 67.64992,23.9671467 67.64992,24.1397867 Z" id="Path" fill="#D7D7D7"></path>
                <path d="M79.1451267,33.0138467 C79.1451267,32.7744733 78.95108,32.5805133 78.7117933,32.5805133 C78.47242,32.5805133 78.27846,32.7744733 78.27846,33.0138467 L78.27846,35.8985467 C78.27846,36.13792 78.47242,36.33188 78.7117933,36.33188 C78.95108,36.33188 79.1451267,36.13792 79.1451267,35.8985467 L79.1451267,33.0138467 Z" id="Path" fill="#D7D7D7" fill-rule="nonzero"></path>
                <path d="M80.1540133,34.1435467 C80.1540133,34.3161867 80.0140467,34.4561533 79.84132,34.4561533 L76.7151667,34.4561533 C76.5425267,34.4561533 76.40256,34.3161867 76.40256,34.1435467 C76.40256,33.9709067 76.5425267,33.83094 76.7151667,33.83094 L79.84132,33.83094 C80.0140467,33.83094 80.1540133,33.9709067 80.1540133,34.1435467 Z" id="Path" fill="#D7D7D7"></path>
                <path d="M77.9691467,20.70094 L78.0767,20.7109067 C78.21944,20.7325733 78.3552467,20.78726 78.4735467,20.8708067 C78.5770267,20.943 78.6638667,21.0353 78.7294733,21.1414667 L78.77454,21.2236267 L79.24228,22.6338667 C79.3547733,22.9709133 79.5443133,23.27702 79.7957333,23.5280067 C79.9753933,23.7072333 80.1830467,23.8548267 80.41228,23.9661933 L80.55242,24.0285933 L81.9996667,24.5051733 C82.19458,24.56558 82.3644467,24.6876933 82.48344,24.8527933 C82.5665533,24.9697067 82.6214133,25.1043 82.6437733,25.246 C82.6660467,25.3877 82.6553,25.5326933 82.6122267,25.66954 C82.5691533,25.8063867 82.4950533,25.93136 82.39556,26.0347533 C82.3364533,26.0961133 82.2695467,26.1488933 82.1965733,26.1917933 L82.1216933,26.2312267 L80.71726,26.6940267 C80.38056,26.8064333 80.07454,26.9958 79.82364,27.2471333 C79.6444133,27.42662 79.49682,27.6341 79.3853667,27.8633333 L79.32288,28.0033867 L78.8471667,29.44604 C78.7804333,29.6309867 78.66014,29.7920133 78.5024067,29.90806 C78.3464067,30.0196867 78.1592933,30.07966 77.9673267,30.0794882 C77.7755333,30.0798333 77.58842,30.02064 77.4317267,29.91014 C77.32816,29.83708 77.2412333,29.744 77.1757133,29.6370533 L77.1306467,29.5543733 L76.66308,28.1409267 C76.5817867,27.89358 76.45898,27.66192 76.3000333,27.4558267 C76.0842333,27.17624 75.8075067,26.9516867 75.4896133,26.79716 L75.3509467,26.73528 L73.9075133,26.2613867 C73.7220467,26.1976867 73.5611933,26.0776533 73.4475733,25.9180133 C73.36472,25.8011 73.3099467,25.6665933 73.28776,25.52498 C73.2654867,25.3833667 73.27632,25.2385467 73.3193933,25.1017867 C73.3624667,24.9651133 73.4365667,24.8402267 73.5358867,24.7368333 C73.59482,24.67556 73.6617267,24.62278 73.7346133,24.5799667 L73.80932,24.5404467 L75.2145333,24.0802467 C75.5415267,23.9661067 75.8382733,23.77908 76.0824133,23.53338 C76.2567867,23.35788 76.4010867,23.1556867 76.5111533,22.9324333 L76.5730333,22.79602 L77.05854,21.3302267 C77.1049933,21.1934667 77.1826467,21.0694467 77.2854333,20.9680467 C77.38822,20.86656 77.51328,20.7904667 77.6506467,20.7458333 C77.7192867,20.72356 77.7900933,20.7093467 77.8615933,20.70354 L77.9691467,20.70094 Z M77.9870867,21.3261533 L77.4080667,22.83866 L77.3448,23.0116467 C77.1862,23.4099667 76.9509867,23.7719733 76.6515533,24.07808 C76.35004,24.38332 75.98994,24.6239067 75.4224467,24.8521867 L73.9017067,25.34558 L75.41586,25.9189667 L75.5909267,25.9832733 C75.9941,26.14456 76.35966,26.3849733 76.66672,26.69134 C76.97092,26.9985733 77.2083,27.3649133 77.4284333,27.9407267 L77.9213067,29.4542733 L78.4956467,27.9415933 L78.5593467,27.7670467 C78.7195067,27.3649133 78.9590533,27.00048 79.2645533,26.69472 C79.57092,26.3882667 79.9363933,26.14846 80.5116,25.9246 L82.0298267,25.43268 L80.4875933,24.85262 L80.3127867,24.7892667 C79.91022,24.6299733 79.5452667,24.3909467 79.23916,24.0854467 C78.93236,23.77934 78.6925533,23.4138667 78.4692133,22.8384 L77.9870867,21.3261533 Z" id="Shape" fill="#D7D7D7" fill-rule="nonzero"></path>
                <path d="M35.2312133,18.2 C35.3414533,18.2178533 35.4462333,18.2606667 35.53784,18.3254933 C35.6120267,18.37732 35.6754667,18.44232 35.7246067,18.5152067 L35.7688933,18.59052 L36.1504867,19.7361667 C36.2413133,20.00856 36.39428,20.2559933 36.5972533,20.45888 C36.73254,20.59408 36.8875867,20.7070067 37.0577133,20.7944533 L37.1881467,20.8552933 L38.3701933,21.2465933 C38.5242,21.2943467 38.6585333,21.3910667 38.7525667,21.5216733 C38.81826,21.6142333 38.8615933,21.72066 38.8792733,21.8328067 C38.8968667,21.9449533 38.8883733,22.0596133 38.8543133,22.1679467 C38.8288333,22.2491533 38.7894867,22.3250733 38.7382667,22.3925 L38.68306,22.45698 L37.3410267,22.98374 C37.0691533,23.0745667 36.8221533,23.22762 36.6196133,23.4307667 C36.4845867,23.56614 36.3717467,23.7212733 36.2843,23.8915733 L36.2235467,24.0220067 L35.8335467,25.20128 C35.7807667,25.3478333 35.6856067,25.47532 35.5608933,25.5671867 C35.4375667,25.6555 35.2897133,25.7029933 35.13796,25.7028219 C34.98638,25.7031667 34.8385267,25.65628 34.71468,25.5688333 C34.64032,25.5163133 34.57688,25.4507933 34.5278267,25.3773867 L34.4836267,25.3015533 L34.10212,24.15322 C34.0364267,23.95328 33.9373667,23.76608 33.8090133,23.59942 C33.6410533,23.3816267 33.4273333,23.205 33.1829333,23.08098 L33.05822,23.0233467 L31.8841467,22.6362067 C31.7375933,22.5858533 31.6103667,22.49078 31.52058,22.3645067 C31.45506,22.2719467 31.4118133,22.16552 31.39422,22.05346 C31.3766267,21.9414 31.3852067,21.8268267 31.4192667,21.71858 C31.4447467,21.63746 31.4840933,21.56154 31.5353133,21.4942 L31.5903467,21.4298067 L32.9329,20.9051267 C33.1968867,20.8128267 33.4364333,20.66168 33.6335133,20.4631267 C33.7649,20.3307 33.87514,20.1795533 33.9612867,20.0138467 L34.0213467,19.8869667 L34.41932,18.6889733 C34.4560667,18.5808133 34.5174267,18.48262 34.5986333,18.4023667 C34.6583467,18.3434333 34.7275067,18.2953333 34.8029933,18.2598867 L34.8804733,18.2287733 L35.2312133,18.2 Z M35.1539067,18.8252133 L34.7021133,20.0052667 L34.6467333,20.15494 C34.5265267,20.4499533 34.35094,20.71784 34.12864,20.94508 C33.9046067,21.1718 33.6379333,21.3513733 33.1963667,21.5320733 L32.0105933,21.9167 L33.1919467,22.36416 L33.3433533,22.4204067 C33.6418333,22.5426067 33.9122333,22.72218 34.1402533,22.9495933 C34.3708733,23.1825533 34.5507067,23.46032 34.7176267,23.8969467 L35.10208,25.0776067 L35.55006,23.8975533 L35.60596,23.7464933 C35.7272933,23.4487933 35.9061733,23.1791733 36.13298,22.9521933 C36.3652467,22.71984 36.6424067,22.5381 37.0785133,22.36832 L38.2629867,21.9846467 L37.06014,21.53216 L36.90882,21.4766067 C36.61086,21.35588 36.3408067,21.1773467 36.1135667,20.9506267 C35.88104,20.7185333 35.6993,20.4412867 35.5299533,20.0050067 L35.1539067,18.8252133 Z" id="Shape" fill="#D7D7D7" fill-rule="nonzero"></path>
                <path d="M28.50094,28.01188 C28.50094,27.7725933 28.30698,27.5785467 28.0676067,27.5785467 C27.82832,27.5785467 27.6342733,27.7725933 27.6342733,28.01188 L27.6342733,32.14718 C27.6342733,32.3864667 27.82832,32.5805133 28.0676067,32.5805133 C28.30698,32.5805133 28.50094,32.3864667 28.50094,32.14718 L28.50094,28.01188 Z" id="Path" fill="#D7D7D7" fill-rule="nonzero"></path>
                <path d="M30.1353,29.76688 C30.1353,29.93952 29.9953333,30.0794867 29.8226933,30.0794867 L25.4460267,30.0794867 C25.2733867,30.0794867 25.13342,29.93952 25.13342,29.76688 C25.13342,29.59424 25.2733867,29.4542733 25.4460267,29.4542733 L29.8226933,29.4542733 C29.9953333,29.4542733 30.1353,29.59424 30.1353,29.76688 Z" id="Path" fill="#D7D7D7"></path>
            </g>
        </g>
    </g>
</svg>
