<?xml version="1.0" encoding="UTF-8"?>
<svg width="26px" height="26px" viewBox="0 0 26 26" version="1.1" xmlns="http://www.w3.org/2000/svg" xmlns:xlink="http://www.w3.org/1999/xlink">
    <title>PIC</title>
    <g id="PIC" stroke="none" stroke-width="1" fill="none" fill-rule="evenodd">
        <g id="Group" transform="translate(5.000000, 5.000000)" fill="#363636" fill-rule="nonzero">
            <g id="Icon---Utility-/-Image">
                <path d="M13.3333333,2.66666667 C14.069713,2.66666667 14.6666667,3.26362033 14.6666667,4 L14.6666667,12 C14.6666667,12.7363797 14.069713,13.3333333 13.3333333,13.3333333 L2.66666667,13.3333333 C1.930287,13.3333333 1.33333333,12.7363797 1.33333333,12 L1.33333333,4 C1.33333333,3.26362033 1.930287,2.66666667 2.66666667,2.66666667 L13.3333333,2.66666667 Z M13.3333333,4 L2.66666667,4 L2.66666667,12 L13.3333333,12 L13.3333333,4 Z M7.3211121,6.9905639 C7.53510619,6.81603269 7.85006817,6.84802367 8.02459938,7.06201775 L8.02459938,7.06201775 L9.12745388,8.41423627 C9.25259935,8.5676781 9.45650315,8.63281541 9.64742827,8.5803427 L9.64742827,8.5803427 L10.5489075,8.33258558 C10.748482,8.27773572 10.9612208,8.35151855 11.0839768,8.51816024 L11.0839768,8.51816024 L12.0789353,9.86881945 C12.1423602,9.95491892 12.1765095,10.0590851 12.1763693,10.1660235 C12.1760073,10.4421656 11.9518564,10.6657295 11.6757143,10.6653675 L11.6757143,10.6653675 L4.36729294,10.6557861 C4.22080519,10.655594 4.08177013,10.5911722 3.98691833,10.4795396 C3.80811445,10.2691025 3.83375825,9.95356028 4.04419537,9.7747564 L4.04419537,9.7747564 L7.31337575,6.99700435 L7.31337575,6.99700435 Z M5,5.33333333 C5.55228475,5.33333333 6,5.78104858 6,6.33333333 C6,6.88561808 5.55228475,7.33333333 5,7.33333333 C4.44771525,7.33333333 4,6.88561808 4,6.33333333 C4,5.78104858 4.44771525,5.33333333 5,5.33333333 Z" id="↳🌈-Color"></path>
            </g>
        </g>
    </g>
</svg>