<svg width="53" height="53" viewBox="0 0 53 53" fill="none" xmlns="http://www.w3.org/2000/svg">
<path fill-rule="evenodd" clip-rule="evenodd" d="M12.6756 4.86255H26.4375H34.9375H37.7182C38.6519 4.86255 39.5402 5.26089 40.1551 5.95533L42.6363 8.75769C43.1528 9.34102 43.4375 10.0898 43.4375 10.8649V14.8625V24.8625V41.6625C43.4375 43.4299 41.9878 44.8625 40.1994 44.8625H12.6756C10.8872 44.8625 9.4375 43.4299 9.4375 41.6625V8.06255C9.4375 6.29524 10.8872 4.86255 12.6756 4.86255Z" fill="#F8F8F8" stroke="#363636"/>
<path fill-rule="evenodd" clip-rule="evenodd" d="M12.8502 4.86262C12.7834 5.11829 12.7479 5.38633 12.7479 5.66255V39.2625C12.7479 41.0299 14.202 42.4625 15.9957 42.4625L43.5 42.4632C43.1392 43.843 41.8678 44.8625 40.3546 44.8625H12.7479C10.9541 44.8625 9.5 43.4299 9.5 41.6625V8.06255C9.5 6.29524 10.9541 4.86255 12.7479 4.86255L12.8502 4.86262Z" fill="#363636" fill-opacity="0.1"/>
<path d="M15.5 35.8H36.5" stroke="#363636" stroke-linecap="round"/>
<path d="M15.5 29.8H36.5" stroke="#363636" stroke-linecap="round"/>
<path d="M15.5 23.8H36.5" stroke="#363636" stroke-linecap="round"/>
<path d="M15.5 17.8H36.5" stroke="#363636" stroke-linecap="round"/>
<path d="M15.5 11.8H36.5" stroke="#363636" stroke-linecap="round"/>
<path d="M37.5 49.8C42.4706 49.8 46.5 45.7706 46.5 40.8C46.5 35.8295 42.4706 31.8 37.5 31.8C32.5294 31.8 28.5 35.8295 28.5 40.8C28.5 45.7706 32.5294 49.8 37.5 49.8Z" fill="url(#paint0_linear_1085_4640)" stroke="#363636"/>
<path d="M35.9978 44.2C35.9211 44.2 35.8578 44.1758 35.8079 44.1272C35.758 44.0786 35.7331 44.017 35.7331 43.9423V39.9409C35.7331 39.8661 35.758 39.8064 35.8079 39.7615C35.8578 39.7167 35.9211 39.6943 35.9978 39.6943H36.5158C36.5926 39.6943 36.6559 39.7167 36.7058 39.7615C36.7556 39.8064 36.7806 39.8661 36.7806 39.9409V43.3034H38.4957C39.1787 43.3034 39.6736 43.1371 39.9806 42.8046C40.2875 42.4721 40.441 42.0069 40.441 41.4092V38.0578C40.441 37.9831 40.4659 37.9215 40.5158 37.8729C40.5657 37.8243 40.629 37.8 40.7058 37.8H41.2353C41.312 37.8 41.3753 37.8243 41.4252 37.8729C41.4751 37.9215 41.5 37.9831 41.5 38.0578V41.4428C41.5 42.048 41.3926 42.5561 41.1777 42.9671C40.9628 43.3781 40.6386 43.6863 40.205 43.8918C39.7715 44.0973 39.2209 44.2 38.5532 44.2H35.9978ZM33.7532 44.2C33.6765 44.2 33.6151 44.1758 33.5691 44.1272C33.523 44.0786 33.5 44.017 33.5 43.9423V38.0578C33.5 37.9831 33.523 37.9215 33.5691 37.8729C33.6151 37.8243 33.6765 37.8 33.7532 37.8H36.3201C36.9878 37.8 37.5384 37.9028 37.9719 38.1083C38.4055 38.3138 38.7297 38.6201 38.9446 39.0274C39.1595 39.4346 39.2669 39.9446 39.2669 40.5573V42.048C39.2669 42.1228 39.242 42.1844 39.1921 42.233C39.1422 42.2815 39.0789 42.3058 39.0022 42.3058H38.4727C38.3959 42.3058 38.3326 42.2815 38.2827 42.233C38.2329 42.1844 38.2079 42.1228 38.2079 42.048V40.5909C38.2079 39.9932 38.0544 39.528 37.7475 39.1955C37.4405 38.863 36.9456 38.6967 36.2626 38.6967H34.5475V43.9423C34.5475 44.017 34.5225 44.0786 34.4727 44.1272C34.4228 44.1758 34.3595 44.2 34.2827 44.2H33.7532Z" fill="#363636"/>
<defs>
<linearGradient id="paint0_linear_1085_4640" x1="60.3096" y1="58.3366" x2="28.5" y2="33.5921" gradientUnits="userSpaceOnUse">
<stop stop-color="#FF7100"/>
<stop offset="1" stop-color="#F6DA35"/>
</linearGradient>
</defs>
</svg>
