<svg width="120" height="78" viewBox="0 0 120 78" fill="none" xmlns="http://www.w3.org/2000/svg">
<g clip-path="url(#clip0_914_136)">
<path opacity="0.3" fill-rule="evenodd" clip-rule="evenodd" d="M98.1763 24.4446C96.7848 24.4446 95.5216 24.9909 94.5923 25.8798C93.6605 26.7711 93.0643 28.0069 93.0122 29.3813L92.9719 30.4426L92.1795 29.7353C91.5036 29.1319 90.7409 28.7783 89.8925 28.7783C89.067 28.7783 88.3196 29.1106 87.7786 29.6483C87.2387 30.185 86.9046 30.9263 86.9046 31.7452C86.9046 32.1198 86.9743 32.4782 87.1019 32.8082C87.1624 32.9647 87.2368 33.1171 87.3251 33.2638C87.161 33.3119 86.9999 33.3718 86.843 33.4434C86.3708 33.6588 85.9526 33.9731 85.6153 34.359C84.5033 34.1516 83.9482 33.9787 83.3526 33.9787C82.5272 33.9787 81.7798 34.3111 81.2388 34.8488C80.6989 35.3854 80.3647 36.1267 80.3647 36.9457C80.3647 37.7647 80.6989 38.5059 81.2388 39.0426C81.7798 39.5803 82.5272 39.9127 83.3526 39.9127C84.0418 39.9127 84.6767 39.681 85.1824 39.2915C86.4889 39.9583 87.3822 40.346 88.3665 40.346C88.7902 40.346 89.1971 40.2743 89.5754 40.1421C90.7095 41.4209 91.5139 42.2885 92.4993 42.8922C93.4529 43.4763 94.5761 43.813 95.7784 43.813C97.1145 43.813 98.3529 43.3971 99.3695 42.6881C100.678 43.1201 101.577 43.3796 102.536 43.3796C103.599 43.3796 104.588 43.0608 105.41 42.5137C106.256 41.9502 106.926 41.1448 107.318 40.1969C107.4 39.9986 107.469 39.7963 107.525 39.5912C107.681 39.7308 107.85 39.8521 108.028 39.9541C108.464 40.2037 108.971 40.346 109.512 40.346C110.338 40.346 111.085 40.0137 111.626 39.476C112.166 38.9393 112.5 38.198 112.5 37.3791C112.5 36.5601 112.166 35.8188 111.626 35.2822C111.085 34.7444 110.338 34.4121 109.512 34.4121C108.704 34.4121 107.971 34.7306 107.433 35.2485C107.284 35.3913 107.151 35.5494 107.034 35.7204C106.929 35.5358 106.812 35.3578 106.685 35.1874C105.814 34.0198 104.454 33.2337 102.907 33.125C102.557 33.1004 102.212 33.1114 101.875 33.155C102.12 32.9089 102.336 32.6399 102.523 32.3532C103.043 31.5553 103.344 30.6018 103.344 29.5784C103.344 28.1611 102.766 26.8781 101.832 25.9493C100.896 25.0194 99.6037 24.4446 98.1763 24.4446Z" stroke="#B19200"/>
<path fill-rule="evenodd" clip-rule="evenodd" d="M42.8146 29.4305C42.449 29.2162 42.1433 29.06 41.8975 28.9619C37.0048 27.0091 28.2172 29.3686 26.1168 36.1918C26.0291 36.4768 26.189 36.7789 26.474 36.8666C26.5512 36.8903 26.6327 36.8965 26.7126 36.8845C26.9917 36.8427 27.22 36.8049 27.3975 36.771C31.2308 36.0392 34.6199 36.6496 37.565 38.6022C37.8614 38.8002 38.2622 38.7205 38.4603 38.4242C38.4693 38.4106 38.4779 38.3967 38.4859 38.3825L43.0496 30.3064C43.2242 29.9993 43.1195 29.609 42.8146 29.4305Z" fill="url(#paint0_linear_914_136)" stroke="#363636" stroke-linejoin="round"/>
<path fill-rule="evenodd" clip-rule="evenodd" d="M59.969 40.9584C64.5852 43.9523 65.9835 55.5455 58.7552 60.2131C57.9542 55.0237 55.9992 51.3487 52.8902 49.1883C55.6366 45.9347 57.9962 43.1914 59.969 40.9584Z" fill="url(#paint1_linear_914_136)" stroke="#363636" stroke-linejoin="round"/>
<path fill-rule="evenodd" clip-rule="evenodd" d="M68.1798 8.80472L62.9849 10.472C55.3847 12.9112 49.0541 18.2268 45.3611 25.2735L37.974 39.3618C36.4191 42.3269 37.2816 45.9792 40.0001 47.9453L45.8303 52.1634C48.6939 54.234 52.6772 53.7639 54.9754 51.0827L65.3702 38.9575C70.338 33.1608 73.3336 25.9488 73.929 18.3533L74.3002 13.6154C74.3472 13.0088 74.2762 12.3983 74.0871 11.8186C73.4467 9.83857 71.6037 8.57764 69.6206 8.57764C69.1433 8.57764 68.657 8.65134 68.1798 8.80472Z" fill="white" stroke="#363636"/>
<path fill-rule="evenodd" clip-rule="evenodd" d="M47.5604 21.1827C40.7786 33.9444 37.3867 41.1205 37.3867 42.7131C37.3867 44.0976 40.6 50.4732 48.4264 53.4522C49.2088 53.75 52.297 53.7119 53.6327 51.6452C48.4264 43.9212 48.687 34.3602 53.0146 27.6943C57.9603 21.2392 65.0358 15.9593 73.5996 11.1208L69.5836 8.4519C65.1722 9.99968 62.3766 10.7746 61.1979 10.7746C60.0193 10.7746 55.4738 14.2436 47.5604 21.1827Z" fill="#363636" fill-opacity="0.1"/>
<path fill-rule="evenodd" clip-rule="evenodd" d="M68.1798 8.80472L62.9849 10.472C55.3847 12.9112 49.0541 18.2268 45.3611 25.2735L37.974 39.3618C36.4191 42.3269 37.2816 45.9792 40.0001 47.9453L45.8303 52.1634C48.6939 54.234 52.6772 53.7639 54.9754 51.0827L65.3702 38.9575C70.338 33.1608 73.3336 25.9488 73.929 18.3533L74.3002 13.6154C74.3472 13.0088 74.2762 12.3983 74.0871 11.8186C73.4467 9.83857 71.6037 8.57764 69.6206 8.57764C69.1433 8.57764 68.657 8.65134 68.1798 8.80472Z" stroke="#363636" stroke-width="0.744009"/>
<path fill-rule="evenodd" clip-rule="evenodd" d="M52.6688 36.6033L51.1557 36.9244C49.5599 37.263 48.1629 38.2193 47.2698 39.5844L43.6668 45.0913L41.8123 52.1676C41.7104 52.5565 41.9431 52.9544 42.332 53.0564C42.5891 53.1237 42.8626 53.0456 43.0453 52.8525L48.3738 47.2219C50.2317 45.2587 51.6164 42.8969 52.4223 40.3169L53.349 37.3504C53.4454 37.0418 53.2734 36.7136 52.9648 36.6172C52.869 36.5873 52.7671 36.5825 52.6688 36.6033Z" fill="url(#paint2_linear_914_136)" stroke="#363636" stroke-linejoin="round"/>
<path d="M57.8812 28.5527C60.5593 30.4985 64.3055 29.9079 66.2485 27.2335C68.1916 24.5592 67.5956 20.8139 64.9175 18.8681C62.2394 16.9223 58.4932 17.513 56.5502 20.1873C54.6072 22.8616 55.2031 26.607 57.8812 28.5527Z" fill="#EEEEEE" stroke="#363636"/>
<path opacity="0.3" d="M37.6378 54.7393C32.0234 65.2114 28.0968 71.0396 25.8582 72.2237C22.5002 73.9999 16.9895 72.2004 17.2449 66.8502C17.5002 61.4999 25.5002 62.9999 24.0002 66.9999" stroke="#B19200"/>
<path opacity="0.3" d="M43.8591 57.4874C38.5381 64.786 35.8595 69.6355 35.8233 72.036C35.7692 75.6368 39.0442 77.8213 41.6845 76.112C44.3249 74.4027 42.8371 69.5983 40.0512 71.2389" stroke="#B19200"/>
<path opacity="0.3" fill-rule="evenodd" clip-rule="evenodd" d="M21.8237 0.5C23.2152 0.5 24.4784 1.0463 25.4077 1.93524C26.3395 2.82654 26.9357 4.06233 26.9878 5.43667L27.0281 6.49804L27.8205 5.79071C28.4964 5.18732 29.2591 4.8337 30.1075 4.8337C30.933 4.8337 31.6804 5.16604 32.2214 5.70377C32.7613 6.24041 33.0954 6.9817 33.0954 7.80067C33.0954 8.17525 33.0257 8.53364 32.8981 8.86359C32.8376 9.02007 32.7632 9.17254 32.6749 9.3192C32.839 9.36735 33.0001 9.42724 33.157 9.49879C33.6292 9.71422 34.0474 10.0285 34.3847 10.4144C35.4967 10.207 36.0518 10.0341 36.6474 10.0341C37.4728 10.0341 38.2202 10.3665 38.7612 10.9042C39.3011 11.4409 39.6353 12.1821 39.6353 13.0011C39.6353 13.8201 39.3011 14.5614 38.7612 15.098C38.2202 15.6357 37.4728 15.9681 36.6474 15.9681C35.9582 15.9681 35.3233 15.7365 34.8176 15.3469C33.5111 16.0137 32.6178 16.4014 31.6335 16.4014C31.2098 16.4014 30.8029 16.3297 30.4246 16.1975C29.2905 17.4763 28.4861 18.3439 27.5007 18.9476C26.5471 19.5317 25.4239 19.8684 24.2216 19.8684C23.0521 19.8684 21.9574 19.5498 21.0208 18.9948C20.0517 18.4205 19.2519 17.5934 18.7136 16.6049C18.0873 16.4205 17.8113 16.4022 17.5914 16.4011L17.4638 16.4014C16.0366 16.4014 14.7444 15.8268 13.8089 14.8972C13.6363 14.7257 13.4757 14.5419 13.3286 14.3476C13.2555 14.5719 13.1558 14.7874 13.0312 14.9889C12.5068 15.8371 11.5635 16.4014 10.4879 16.4014C9.66249 16.4014 8.91506 16.0691 8.37408 15.5314C7.83419 14.9947 7.5 14.2534 7.5 13.4345C7.5 12.6155 7.83419 11.8742 8.37408 11.3376C8.91506 10.7999 9.66249 10.4675 10.4879 10.4675C10.9147 10.4675 11.3207 10.5562 11.6881 10.7164C11.9031 10.8102 12.1093 10.9304 12.3015 11.0765C12.3099 10.8341 12.3357 10.5905 12.3799 10.3474C12.5618 9.34517 13.0371 8.44443 13.7137 7.73554C14.3938 7.02293 15.2774 6.50399 16.2721 6.27086C16.657 4.30079 17.2281 2.98374 18.1571 2.03526C19.0927 1.08019 20.3901 0.5 21.8237 0.5Z" stroke="#B19200"/>
</g>
<defs>
<linearGradient id="paint0_linear_914_136" x1="27.6086" y1="37.5971" x2="42.899" y2="31.8258" gradientUnits="userSpaceOnUse">
<stop stop-color="#B19200"/>
<stop offset="1" stop-color="#F0DE89"/>
</linearGradient>
<linearGradient id="paint1_linear_914_136" x1="57.1531" y1="58.9614" x2="57.4666" y2="42.1544" gradientUnits="userSpaceOnUse">
<stop stop-color="#B19200"/>
<stop offset="1" stop-color="#F0DE89"/>
</linearGradient>
<linearGradient id="paint2_linear_914_136" x1="41.5498" y1="52.5784" x2="55.7962" y2="39.7959" gradientUnits="userSpaceOnUse">
<stop stop-color="#B19200"/>
<stop offset="1" stop-color="#F0DE89"/>
</linearGradient>
<clipPath id="clip0_914_136">
<rect width="120" height="78" fill="white"/>
</clipPath>
</defs>
</svg>
