<svg width="53" height="53" viewBox="0 0 53 53" fill="none" xmlns="http://www.w3.org/2000/svg">
<path d="M8.12497 7.80005C6.68142 7.80005 5.5 8.96615 5.5 10.391V36.3003C5.5 37.7251 6.68142 38.8912 8.12497 38.8912H22.1245V39.7547C22.1245 40.6873 21.8184 41.6029 21.2496 42.3456L19.6746 44.4182C19.4731 44.6774 19.4471 45.0312 19.5958 45.3251C19.7445 45.619 20.0422 45.8 20.3747 45.8H32.6249C32.9574 45.8 33.2636 45.6186 33.4038 45.3251C33.5437 45.0316 33.5177 44.686 33.3251 44.4182L31.7497 42.3456C31.1809 41.6028 30.8748 40.6789 30.8748 39.7547V38.8912H44.8743C46.3179 38.8912 47.4993 37.7251 47.4993 36.3003V10.391C47.4993 8.96578 46.3179 7.80005 44.8743 7.80005H8.12497Z" fill="#EEEEEE" stroke="#363636"/>
<path d="M44.875 7.80005C46.3186 7.80005 47.5 8.96578 47.5 10.391V32.5H5.5L5.50071 10.391C5.50071 9.02095 6.59301 7.89013 7.96034 7.80517L8.12568 7.80005H44.875Z" fill="white" stroke="#363636"/>
<path d="M11.125 7.80005C9.68142 7.80005 8.5 8.96615 8.5 10.391V36.3003C8.5 37.7251 9.68142 38.8912 11.125 38.8912H8.12497C6.68142 38.8912 5.5 37.7251 5.5 36.3003V10.391C5.5 8.96615 6.68142 7.80005 8.12497 7.80005H11.125Z" fill="#363636" fill-opacity="0.1"/>
<mask id="path-4-inside-1_1085_4664" fill="white">
<path d="M19.0236 12.2529C17.3378 12.2529 15.6898 12.7528 14.2881 13.6894C12.8864 14.626 11.794 15.9572 11.1488 17.5147C10.5037 19.0722 10.3349 20.786 10.6638 22.4394C10.9927 24.0928 11.8045 25.6116 12.9965 26.8036C14.1886 27.9957 15.7073 28.8075 17.3607 29.1364C19.0142 29.4653 20.728 29.2965 22.2855 28.6513C23.8429 28.0062 25.1741 26.9137 26.1107 25.512C27.0473 24.1103 27.5472 22.4624 27.5472 20.7765H19.0236L19.0236 12.2529Z"/>
</mask>
<path d="M19.0236 12.2529C17.3378 12.2529 15.6898 12.7528 14.2881 13.6894C12.8864 14.626 11.794 15.9572 11.1488 17.5147C10.5037 19.0722 10.3349 20.786 10.6638 22.4394C10.9927 24.0928 11.8045 25.6116 12.9965 26.8036C14.1886 27.9957 15.7073 28.8075 17.3607 29.1364C19.0142 29.4653 20.728 29.2965 22.2855 28.6513C23.8429 28.0062 25.1741 26.9137 26.1107 25.512C27.0473 24.1103 27.5472 22.4624 27.5472 20.7765H19.0236L19.0236 12.2529Z" fill="#F8F8F8" stroke="#363636" stroke-width="1.9" mask="url(#path-4-inside-1_1085_4664)"/>
<path opacity="0.1" fill-rule="evenodd" clip-rule="evenodd" d="M14.1496 13.7839C13.7481 14.3315 13.4114 14.928 13.1488 15.5619C12.5037 17.1193 12.3349 18.8332 12.6638 20.4866C12.9927 22.14 13.8045 23.6588 14.9965 24.8508C16.1886 26.0429 17.7073 26.8547 19.3607 27.1835C21.0142 27.5124 22.728 27.3436 24.2855 26.6985C24.856 26.4622 25.3961 26.1658 25.8977 25.8162C24.977 27.072 23.7284 28.0536 22.2855 28.6513C20.728 29.2964 19.0142 29.4652 17.3607 29.1363C15.7073 28.8074 14.1886 27.9956 12.9965 26.8036C11.8045 25.6115 10.9927 24.0928 10.6638 22.4393C10.3349 20.7859 10.5037 19.0721 11.1488 17.5146C11.7725 16.0088 12.8144 14.7146 14.1496 13.7839Z" fill="#363636"/>
<path fill-rule="evenodd" clip-rule="evenodd" d="M28.5025 19.2723C28.5025 14.8693 24.9332 11.3 20.5303 11.3C20.5299 11.3 20.5296 11.3 20.5293 11.3V19.2723H28.5025Z" fill="url(#paint0_linear_1085_4664)"/>
<rect x="32.5" y="14.8" width="10" height="1" rx="0.5" fill="#363636"/>
<rect x="32.5" y="19.8" width="10" height="1" rx="0.5" fill="#363636"/>
<rect x="32.5" y="24.8" width="10" height="1" rx="0.5" fill="#363636"/>
<defs>
<linearGradient id="paint0_linear_1085_4664" x1="-2.16584" y1="28.2445" x2="33.725" y2="25.0774" gradientUnits="userSpaceOnUse">
<stop offset="0.438627" stop-color="#FF7100"/>
<stop offset="1" stop-color="#F6DA35"/>
</linearGradient>
</defs>
</svg>
